<?xml version="1.0" encoding="UTF-8" standalone="no"?>
<svg
   xmlns:dc="http://purl.org/dc/elements/1.1/"
   xmlns:cc="http://creativecommons.org/ns#"
   xmlns:rdf="http://www.w3.org/1999/02/22-rdf-syntax-ns#"
   xmlns:svg="http://www.w3.org/2000/svg"
   xmlns="http://www.w3.org/2000/svg"
   xmlns:xlink="http://www.w3.org/1999/xlink"
   xmlns:sodipodi="http://sodipodi.sourceforge.net/DTD/sodipodi-0.dtd"
   xmlns:inkscape="http://www.inkscape.org/namespaces/inkscape"
   width="1920"
   height="555.19598"
   viewBox="0 0 1920 555.19598"
   version="1.1"
   id="svg4376"
   inkscape:version="0.92.3 (2405546, 2018-03-11)"
   sodipodi:docname="bg1.svg">
  <metadata
     id="metadata4394">
    <rdf:RDF>
      <cc:Work
         rdf:about="">
        <dc:format>image/svg+xml</dc:format>
        <dc:type
           rdf:resource="http://purl.org/dc/dcmitype/StillImage" />
        <dc:title>Path Copy 2</dc:title>
      </cc:Work>
    </rdf:RDF>
  </metadata>
  <sodipodi:namedview
     pagecolor="#ffffff"
     bordercolor="#666666"
     borderopacity="1"
     objecttolerance="10"
     gridtolerance="10"
     guidetolerance="10"
     inkscape:pageopacity="0"
     inkscape:pageshadow="2"
     inkscape:window-width="1366"
     inkscape:window-height="692"
     id="namedview4392"
     showgrid="false"
     inkscape:zoom="0.25"
     inkscape:cx="961.4922"
     inkscape:cy="-2.9090552"
     inkscape:window-x="0"
     inkscape:window-y="0"
     inkscape:window-maximized="1"
     inkscape:current-layer="Desktop-HD-Copy" />
  <!-- Generator: Sketch 44.1 (41455) - http://www.bohemiancoding.com/sketch -->
  <title
     id="title4378">Path Copy 2</title>
  <desc
     id="desc4380">Created with Sketch.</desc>
  <defs
     id="defs4382">
    <linearGradient
       id="linearGradient1582"
       y2="0.30081359"
       x2="1.1429939"
       y1="0.30081359"
       x1="-0.018143563">
      <stop
         id="stop1578"
         offset="0%"
         stop-color="#34A9B4"
         style="stop-color:#eef0c1;stop-opacity:1" />
      <stop
         id="stop1580"
         offset="100%"
         stop-color="#92DAE1"
         style="stop-color:#78e08f;stop-opacity:1" />
    </linearGradient>
    <linearGradient
       x1="-18.732531"
       y1="4117.3696"
       x2="1180.0973"
       y2="4117.3696"
       id="linearGradient-1"
       gradientTransform="scale(1.8596334,0.5377404)"
       gradientUnits="userSpaceOnUse">
      <stop
         stop-color="#34A9B4"
         offset="0%"
         id="stop4385" />
      <stop
         stop-color="#92DAE1"
         offset="100%"
         id="stop4387" />
    </linearGradient>
    <linearGradient
       inkscape:collect="always"
       xlink:href="#linearGradient1582"
       id="linearGradient4400"
       x1="-131.59395"
       y1="4570.7769"
       x2="-19.522306"
       y2="4050.2495"
       gradientTransform="matrix(-1.3947242,0,0,0.40330554,1920,651.30382)"
       gradientUnits="userSpaceOnUse" />
    <path
       d="M 3.02328,8.78081e-6 C 3.74311,1.00706 4.75088,1.87025 4.89484,2.87731 5.18277,4.45982 3.88709,5.75458 2.44743,5.46685 1.43967,5.32299 0.143957,3.88437 -8.78698e-6,3.02118 -8.78698e-6,2.01413 1.15172,1.00706 1.87155,8.78081e-6 c 0.4319,0 0.71983,0 1.15173,0 z"
       id="path0_fill"
       inkscape:connector-curvature="0" />
    <path
       d="M 5.22702,3.0333 C 4.21926,3.75263 3.2115,4.90353 2.34771,4.90353 1.48391,4.90353 0.188211,3.46491 0.0442457,2.60172 -0.243686,1.01921 0.908058,-0.131733 2.49168,0.0121322 3.49944,0.155997 4.36324,1.16308 5.371,1.8824 5.22703,2.314 5.22702,2.60171 5.22702,3.0333 Z"
       id="path1_fill"
       inkscape:connector-curvature="0" />
    <path
       d="M 5.37099,3.16503 C 4.36323,3.74049 3.49943,4.74752 2.49167,4.89139 0.908049,5.03525 -0.243673,3.88435 0.0442588,2.30184 0.33219,1.29478 1.62788,-8.78081e-6 2.49167,-8.78081e-6 3.49943,-8.78081e-6 4.36323,1.29477 5.37099,2.01409 c 0,0.43159 0,0.71935 0,1.15094 z"
       id="path2_fill"
       inkscape:connector-curvature="0" />
    <path
       d="M 6.04656,2.48993 C 4.46293,3.64085 3.59915,4.79174 2.59138,4.93561 1.00776,5.22334 -4.39349e-6,4.07245 -4.39349e-6,2.48993 -4.39349e-6,0.907421 1.00776,-0.243515 2.59138,0.0442146 3.59915,0.331944 4.46293,1.33902 6.04656,2.48993 Z"
       id="path3_fill"
       inkscape:connector-curvature="0" />
    <path
       d="M 5.37099,3.06156 C 4.36322,3.78088 3.35548,4.93178 2.34772,4.93178 1.48392,4.93178 0.18822,3.49314 0.0442544,2.48609 -0.243677,1.04744 0.908045,-0.24734 2.49167,0.0403899 3.49943,0.184255 4.36322,1.33518 5.37099,1.91064 c 0,0.43159 0,0.71933 0,1.15092 z"
       id="path4_fill"
       inkscape:connector-curvature="0" />
    <path
       d="M 5.36703,3.06539 C 4.35927,3.78471 3.20754,4.93564 2.34374,4.93564 1.47995,4.93564 0.184259,3.49697 0.0402934,2.48992 -0.247638,0.907403 1.04806,-0.243511 2.63168,0.044219 3.63944,0.188084 4.50324,1.33902 5.36703,2.05834 c 0,0.43159 0,0.71932 0,1.00705 z"
       id="path5_fill"
       inkscape:connector-curvature="0" />
    <path
       d="M -4.39349e-6,1.8824 C 1.00776,1.30694 1.87155,0.155997 2.87931,0.0121322 4.46294,-0.131733 5.61467,1.01921 5.32674,2.60172 5.18277,3.60878 3.74311,4.90353 2.87931,4.90353 c -1.00776,0 -1.87155,-1.29478 -2.87931439349,-2.0141 0,-0.28773 0,-0.7193 0,-1.00703 z"
       id="path6_fill"
       inkscape:connector-curvature="0" />
    <path
       d="M 3.02328,-8.78081e-6 C 3.74311,1.00704 4.75087,1.87023 4.89484,2.87729 5.18277,4.4598 3.88708,5.61072 2.44742,5.46686 1.43966,5.32299 0.143964,4.02822 -2.19674e-6,3.16503 -2.19674e-6,2.15798 1.15173,1.15092 1.87156,0.143865 2.44742,0 2.73535,-8.78081e-6 3.02328,-8.78081e-6 Z"
       id="path7_fill"
       inkscape:connector-curvature="0" />
    <path
       d="M 6.04656,2.48993 C 4.46294,3.64084 3.59915,4.79176 2.59139,4.93562 1.15173,5.22335 0,4.07244 0,2.48993 0,0.907412 1.15173,-0.243502 2.59139,0.0442278 c 1.00776,0 1.87155,1.1509122 3.45517,2.4457022 z"
       id="path8_fill"
       inkscape:connector-curvature="0" />
    <path
       d="M 2.92357,8.78081e-6 C 3.6434,1.00706 4.9391,2.01413 4.79513,3.02118 c 0,0.86319 -1.2957,2.15794 -2.30346,2.44567 C 0.908045,5.75458 -0.243677,4.60369 0.0442544,3.02118 0.18822,2.01413 1.19599,1.15094 1.91581,0.143882 2.20375,1.75573e-5 2.49167,8.78081e-6 2.92357,8.78081e-6 Z"
       id="path9_fill"
       inkscape:connector-curvature="0" />
    <path
       d="M 5.3377,3.25646 C 4.32994,3.83192 3.17821,5.12672 2.17045,4.98285 1.30666,4.83899 0.154931,3.40031 0.0109651,2.39326 -0.133001,0.810747 1.1627,-0.340158 2.60235,0.0914361 3.61011,0.379166 4.4739,1.38624 5.3377,2.24943 c 0.14396,0.28773 0,0.7193 0,1.00703 z"
       id="path10_fill"
       inkscape:connector-curvature="0" />
    <path
       d="M 5.37098,3.02115 C 4.36322,3.74048 3.49942,4.74756 2.49166,4.89142 0.90804,5.03529 -0.243682,3.88434 0.0442501,2.30183 0.188216,1.29477 1.62787,4.39041e-6 2.49166,4.39041e-6 3.49942,4.39041e-6 4.50719,1.2948 5.37098,2.01412 c 0,0.28773 0,0.7193 0,1.00703 z"
       id="path11_fill"
       inkscape:connector-curvature="0" />
    <path
       d="M 2.01552,5.51109 C 1.29569,4.50403 4.39349e-6,3.49697 4.39349e-6,2.48992 4.39349e-6,1.62673 1.29568,0.331949 2.30344,0.044219 3.7431,-0.243511 5.0388,0.907403 4.89483,2.48992 4.75087,3.49697 3.7431,4.50402 3.02327,5.36721 2.73534,5.51108 2.44741,5.51109 2.01552,5.51109 Z"
       id="path12_fill"
       inkscape:connector-curvature="0" />
    <path
       d="M 3.02328,0.143856 C 3.59914,1.15091 4.75087,2.30185 4.75087,3.3089 4.6069,4.17209 3.16725,5.61074 2.30345,5.46687 1.43966,5.46687 -8.78697e-6,3.88434 -8.78697e-6,3.02115 -8.78697e-6,2.0141 1.2957,1.00706 2.01553,4.39041e-6 2.30346,0.143869 2.73535,0.143856 3.02328,0.143856 Z"
       id="path13_fill"
       inkscape:connector-curvature="0" />
    <path
       d="M 3.02328,0.143856 C 3.59914,1.15091 4.89483,2.30184 4.75087,3.16503 4.6069,4.02821 3.16725,5.323 2.30345,5.323 1.43966,5.323 -8.78697e-6,3.88434 -8.78697e-6,3.02115 -8.78697e-6,2.0141 1.29569,1.00704 1.87155,-1.75616e-5 2.15948,0.143847 2.59138,0.143856 3.02328,0.143856 Z"
       id="path14_fill"
       inkscape:connector-curvature="0" />
    <path
       d="M 2.3156,6.23041 C 1.16387,4.50404 0.156115,3.64084 0.0121495,2.48992 -0.131816,0.907408 1.01991,-0.243506 2.60354,0.0442234 3.6113,0.331953 4.90699,1.62673 4.90699,2.48992 c 0,1.15092 -1.2957,2.01412 -2.59139,3.74049 z"
       id="path15_fill"
       inkscape:connector-curvature="0" />
    <path
       d="M 6.19053,2.63379 C 4.46294,3.78471 3.59914,4.93564 2.59138,5.07951 1.15172,5.22337 -8.78698e-6,4.21629 -8.78698e-6,2.48992 0.143957,0.907403 1.15173,-0.243511 2.73535,0.044219 3.74312,0.331949 4.6069,1.33901 6.19053,2.63379 Z"
       id="path16_fill"
       inkscape:connector-curvature="0" />
    <path
       d="M 1.87155,5.36327 C 1.15172,4.35621 -8.78698e-6,3.34915 -8.78698e-6,2.3421 -8.78698e-6,1.47891 1.43966,0.184137 2.30345,0.0402717 3.74311,-0.247458 5.0388,1.04733 4.75087,2.62984 4.6069,3.6369 3.45517,4.50008 2.87931,5.50714 2.59138,5.36327 2.15948,5.36327 1.87155,5.36327 Z"
       id="path17_fill"
       inkscape:connector-curvature="0" />
    <path
       d="M 1.73868,5.50713 C 1.16282,4.50008 -0.132891,3.34916 0.011075,2.34211 0.011075,1.47892 1.45075,0.184128 2.45851,0.0402629 3.89817,-0.247467 5.19385,1.04732 4.76195,2.62983 4.47402,3.63689 3.46627,4.50007 2.74644,5.36326 2.45851,5.50712 2.02661,5.50713 1.73868,5.50713 Z"
       id="path18_fill"
       inkscape:connector-curvature="0" />
    <path
       d="M 2.74769,0.14386 C 3.46752,1.00705 4.47527,1.87025 4.7632,2.87731 5.05113,4.45982 4.04339,5.75458 2.45976,5.46685 1.452,5.32299 0.156314,4.17208 0.0123479,3.16503 -0.131618,2.15798 1.0201,1.15093 1.59596,8.78081e-6 2.02786,0.143874 2.45976,0.14386 2.74769,0.14386 Z"
       id="path19_fill"
       inkscape:connector-curvature="0" />
    <path
       d="M 3.16725,0 C 3.74311,1.00705 4.89483,1.87024 4.89483,2.8773 5.0388,4.45981 3.88707,5.61072 2.30344,5.32299 1.29568,5.03526 4.39349e-6,3.74049 4.39349e-6,2.8773 4.39349e-6,1.87024 1.29569,0.863189 2.01552,0 2.44741,0 2.87932,0 3.16725,0 Z"
       id="path20_fill"
       inkscape:connector-curvature="0" />
    <path
       d="M 5.48285,2.8773 C 4.61906,3.59662 3.75526,4.60367 2.60354,4.8914 1.01991,5.17913 -0.131816,4.02821 0.0121495,2.4457 0.156115,1.43865 1.45181,0.143869 2.3156,4.39041e-6 3.32336,4.39041e-6 4.33112,1.15092 5.33888,1.72638 5.48285,2.15797 5.48285,2.58957 5.48285,2.8773 Z"
       id="path21_fill"
       inkscape:connector-curvature="0" />
    <path
       d="M 5.37099,2.88943 C 4.36323,3.60875 3.35547,4.90353 2.49167,4.90353 1.62788,4.90353 0.33219,3.60878 0.0442588,2.60172 -0.243673,1.01921 0.908049,-0.131733 2.49167,0.0121322 3.49943,0.155997 4.36323,1.16308 5.37099,1.8824 c 0,0.28773 0,0.7193 0,1.00703 z"
       id="path22_fill"
       inkscape:connector-curvature="0" />
    <path
       d="M 1.88262,5.32302 C 1.16279,4.31596 -0.132898,3.3089 0.011068,2.30185 0.011068,1.43866 1.45072,0 2.31452,0 3.17831,0 4.61797,1.29478 4.76193,2.15797 4.9059,3.16503 3.75418,4.1721 3.03435,5.32302 c -0.4319,0 -0.8638,0 -1.15173,0 z"
       id="path23_fill"
       inkscape:connector-curvature="0" />
    <path
       d="M 1.88373,5.36724 C 1.1639,4.36019 0.156139,3.497 0.0121736,2.48994 -0.131792,0.90743 1.01994,-0.243506 2.4596,0.0442234 3.46736,0.188088 4.76305,1.62675 4.76305,2.48994 4.76305,3.497 3.46736,4.50401 2.74753,5.51107 2.60356,5.3672 2.17166,5.36724 1.88373,5.36724 Z"
       id="path24_fill"
       inkscape:connector-curvature="0" />
    <path
       d="M 5.36703,2.74452 C 4.50323,3.46385 3.63945,4.47089 2.63168,4.75862 1.04806,5.04635 -0.247636,3.89543 0.0402956,2.45678 0.184261,1.44972 1.47996,0.154923 2.34376,0.0110585 3.35152,-0.132806 4.35927,1.16199 5.36703,1.73745 c 0,0.28773 0,0.71934 0,1.00707 z"
       id="path25_fill"
       inkscape:connector-curvature="0" />
    <path
       d="M 5.37099,2.88826 C 4.36323,3.60758 3.49943,4.75851 2.63564,4.75851 1.62788,4.61464 0.332182,3.46372 0.0442501,2.60053 -0.243682,1.16188 0.908051,-0.132903 2.49168,0.0109618 3.49944,0.154827 4.36323,1.16188 5.37099,1.88121 c 0,0.28773 0,0.71932 0,1.00705 z"
       id="path26_fill"
       inkscape:connector-curvature="0" />
    <path
       d="M 5.27428,3.02116 C 4.26652,3.59662 3.40273,4.60367 2.39497,4.74753 0.811342,4.8914 -0.340393,3.59661 0.0915047,2.15796 0.379436,1.15091 1.67512,-8.78081e-6 2.53892,-8.78081e-6 3.54668,-8.78081e-6 4.41047,1.29479 5.41824,2.01411 5.27427,2.15798 5.27428,2.58957 5.27428,3.02116 Z"
       id="path27_fill"
       inkscape:connector-curvature="0" />
    <path
       d="M 5.22306,3.25646 C 4.21529,3.83192 3.20753,4.98284 2.34374,4.83898 1.47994,4.69511 0.184266,3.40031 0.0403,2.39326 -0.247632,0.810747 1.04806,-0.340136 2.63169,0.0914581 3.63945,0.235323 4.50324,1.38623 5.36703,2.10556 c 0,0.43159 -10e-6,0.86317 -0.14397,1.1509 z"
       id="path28_fill"
       inkscape:connector-curvature="0" />
    <path
       d="M 1.72759,5.323 C 1.15173,4.31595 -2.19674e-6,3.16503 -2.19674e-6,2.15798 0.143964,1.29479 1.58363,8.78081e-6 2.44742,8.78081e-6 3.31122,8.78081e-6 4.60691,1.43864 4.75087,2.30183 c 0,1.00706 -1.15173,2.01412 -1.87156,3.02117 -0.43189,0 -0.71982,0 -1.15172,0 z"
       id="path29_fill"
       inkscape:connector-curvature="0" />
    <path
       d="M 3.02328,0.14386 C 3.59914,1.15091 4.75087,2.30184 4.75087,3.16503 4.6069,4.02822 3.16725,5.323 2.30345,5.323 1.43966,5.323 -8.78697e-6,3.88435 -8.78697e-6,3.02116 -8.78697e-6,2.0141 1.15172,1.00706 1.87155,8.78081e-6 2.30345,0.143874 2.73535,0.14386 3.02328,0.14386 Z"
       id="path30_fill"
       inkscape:connector-curvature="0" />
    <path
       d="M 3.03543,-8.78081e-6 C 3.75526,1.00704 4.90699,1.87022 4.90699,2.73341 4.76302,3.74047 3.61129,5.03528 2.60353,5.32301 1.0199,5.7546 -0.131807,4.4598 0.0121583,2.87729 0.156124,1.87023 1.16387,1.00704 1.8837,-8.78081e-6 c 0.43189,0 0.8638,0 1.15173,0 z"
       id="path31_fill"
       inkscape:connector-curvature="0" />
    <path
       d="M 1.87156,5.51108 C 1.15174,4.50403 4.39349e-6,3.49699 4.39349e-6,2.48993 4.39349e-6,1.62675 1.29568,0.331944 2.30344,0.0442146 3.88707,-0.243515 5.03881,0.907421 4.75088,2.48993 4.60691,3.49699 3.59914,4.36018 3.02327,5.36723 2.59138,5.51109 2.1595,5.51108 1.87156,5.51108 Z"
       id="path32_fill"
       inkscape:connector-curvature="0" />
    <path
       d="M 2.05994,5.36328 C 1.34011,4.50009 0.332348,3.63687 0.0444167,2.62982 -0.243515,1.0473 0.908209,-0.247462 2.34787,0.0402673 3.35563,0.184132 4.65133,1.47892 4.79529,2.34211 4.93926,3.34917 3.78753,4.35623 3.0677,5.36328 c -0.14397,0 -0.57586,0 -1.00776,0 z"
       id="path33_fill"
       inkscape:connector-curvature="0" />
    <path
       d="M 5.37098,2.88835 C 4.36322,3.60768 3.49942,4.61476 2.49166,4.75862 0.90804,5.04635 -0.243682,3.75155 0.0442501,2.3129 0.188216,1.30585 1.62787,0.154923 2.49166,0.0110585 3.35546,-0.132806 4.36322,1.16199 5.37098,1.73745 c 0,0.4316 0,0.71931 0,1.1509 z"
       id="path34_fill"
       inkscape:connector-curvature="0" />
    <path
       d="M 1.87155,5.40699 C 1.15172,4.39994 -8.78698e-6,3.39288 -8.78698e-6,2.38583 -8.78698e-6,1.52264 1.43966,0.227844 2.30345,0.0839794 3.88708,-0.347615 5.0388,0.947186 4.75087,2.5297 4.6069,3.53675 3.59914,4.39994 2.87931,5.40699 c -0.28793,0 -0.57586,0 -1.00776,0 z"
       id="path35_fill"
       inkscape:connector-curvature="0" />
    <path
       d="M 1.87156,5.36722 C 1.15173,4.36017 -2.19674e-6,3.35311 -2.19674e-6,2.48993 0.143964,1.62674 1.43965,0.331957 2.30345,0.0442278 3.88707,-0.243502 5.03881,0.907412 4.75087,2.48993 4.60691,3.49698 3.45518,4.36017 2.73535,5.36722 c -0.14397,0 -0.43189,0 -0.86379,0 z"
       id="path36_fill"
       inkscape:connector-curvature="0" />
    <path
       d="M 5.36703,2.74573 C 4.50324,3.46505 3.63944,4.47209 2.63168,4.75982 1.04806,5.04755 -0.24764,4.04053 0.0402912,2.45802 0.184257,1.45097 1.47996,0.0123025 2.34375,0.0123025 3.35151,-0.131562 4.35927,1.01937 5.36703,1.7387 c 0,0.28773 0,0.57543 0,1.00703 z"
       id="path37_fill"
       inkscape:connector-curvature="0" />
    <path
       d="M 5.32673,2.89094 C 4.46293,3.61027 3.59915,4.76118 2.59138,4.90504 1.00776,5.19277 -4.39349e-6,4.04184 -4.39349e-6,2.45932 -4.39349e-6,0.876811 1.00775,-0.130216 2.44741,0.0136488 3.45517,0.157514 4.31897,1.16454 5.32673,1.74 c 0,0.43159 0,0.71935 0,1.15094 z"
       id="path38_fill"
       inkscape:connector-curvature="0" />
    <path
       d="M 5.37099,3.02116 C 4.36323,3.74048 3.49944,4.74752 2.49168,4.89139 0.908054,5.17911 -0.243679,4.02822 0.0442523,2.44571 0.188218,1.43866 1.48391,0.143856 2.3477,-8.78081e-6 3.35546,-8.78081e-6 4.36323,1.15094 5.37099,1.87026 c 0,0.43159 0,0.71931 0,1.1509 z"
       id="path39_fill"
       inkscape:connector-curvature="0" />
    <path
       d="M 1.72759,5.50713 C 1.15173,4.50008 -4.39349e-6,3.34917 -4.39349e-6,2.34211 0.143961,1.47892 1.43966,0.184132 2.44742,0.0402673 4.03104,-0.247462 5.0388,1.04733 4.75087,2.62984 4.46294,3.63689 3.45518,4.50007 2.73535,5.36326 2.44742,5.50713 2.01552,5.50713 1.72759,5.50713 Z"
       id="path40_fill"
       inkscape:connector-curvature="0" />
    <path
       d="M 3.02328,0.143856 C 3.59914,1.15091 4.6069,2.0141 4.75087,3.02115 4.89483,4.60366 3.7431,5.75459 2.15948,5.323 1.15172,5.03527 -8.78697e-6,3.74047 -8.78697e-6,2.87728 -8.78697e-6,1.87022 1.2957,1.00704 2.01553,-1.75616e-5 2.30346,0.143847 2.73535,0.143856 3.02328,0.143856 Z"
       id="path41_fill"
       inkscape:connector-curvature="0" />
    <path
       d="M 5.41078,3.03328 C 4.40302,3.75261 3.39526,4.90355 2.53146,4.90355 1.66767,4.75969 0.371968,3.60876 0.0840362,2.60171 -0.347861,1.01919 0.947838,-0.131728 2.53146,0.0121366 3.53922,0.156001 4.40302,1.30692 5.41078,1.88238 c 0,0.4316 0,0.86317 0,1.1509 z"
       id="path42_fill"
       inkscape:connector-curvature="0" />
    <path
       d="M 5.33771,3.07014 C 4.32995,3.6456 3.17821,4.79654 2.31442,4.79654 1.45062,4.65267 0.154922,3.35787 0.0109563,2.35082 -0.133009,0.768305 1.16269,-0.238757 2.60234,0.0489728 3.61011,0.336702 4.47391,1.34379 5.33771,2.06311 c 0,0.28773 0,0.57544 0,1.00703 z"
       id="path43_fill"
       inkscape:connector-curvature="0" />
    <path
       d="M 3.06754,-8.78081e-6 C 3.6434,1.00704 4.93909,2.0141 4.79513,2.87729 4.65116,3.74048 3.49944,5.03528 2.49168,5.32301 0.908051,5.61074 -0.243682,4.4598 0.0442501,2.87729 0.188216,1.87023 1.33995,1.00704 1.91581,-8.78081e-6 c 0.28793,0 0.71983,0 1.15173,0 z"
       id="path44_fill"
       inkscape:connector-curvature="0" />
    <path
       d="M 1.91198,5.36721 C 1.19215,4.36016 0.184384,3.49697 0.0404182,2.48992 -0.247513,0.907403 1.04817,-0.243489 2.48783,0.044241 3.49559,0.188106 4.79129,1.48285 4.93526,2.34604 c 0,1.00706 -1.2957,2.01412 -1.87156,3.02117 -0.4319,0 -0.71982,0 -1.15172,0 z"
       id="path45_fill"
       inkscape:connector-curvature="0" />
    <path
       d="M 2.89162,0.143874 C 3.61145,1.15093 4.76318,2.15798 4.76318,3.02117 c 0,0.86319 -1.43965,2.30185 -2.30345,2.30185 -0.86379,0 -2.447421,-1.29479 -2.447421,-2.15798 C -0.131657,2.15799 1.02008,1.15092 1.73991,0 2.1718,0.28773 2.60369,0.143874 2.89162,0.143874 Z"
       id="path46_fill"
       inkscape:connector-curvature="0" />
    <path
       d="M 5.33889,3.02117 C 4.47509,3.74049 3.61129,4.74753 2.60353,4.89139 1.01991,5.17912 -0.131821,4.02823 0.0121451,2.44572 0.156111,1.43867 1.45181,0.143865 2.31561,0 c 1.00776,0 2.01552,1.1509 3.02328,1.87022 0,0.28773 0,0.71936 0,1.15095 z"
       id="path47_fill"
       inkscape:connector-curvature="0" />
    <path
       d="M 5.41078,3.03222 C 4.54699,3.75154 3.53923,4.75862 2.53147,4.90249 0.947842,5.19022 -0.347868,3.89541 0.0840296,2.3129 0.371961,1.30584 1.66767,0.154958 2.53147,0.0110936 3.39526,-0.132771 4.40301,1.16199 5.26681,1.73745 5.41077,2.3129 5.41078,2.60063 5.41078,3.03222 Z"
       id="path48_fill"
       inkscape:connector-curvature="0" />
    <path
       d="M 1.77168,5.33665 C 1.19582,4.32959 0.188065,3.4664 0.0440993,2.45935 -0.243832,0.876837 0.907898,-0.130234 2.63549,0.0136312 4.21911,0.157496 5.22686,1.16453 4.93893,2.60318 4.79496,3.61023 3.64323,4.47342 3.06737,5.48048 2.4915,5.33661 2.20358,5.33665 1.77168,5.33665 Z"
       id="path49_fill"
       inkscape:connector-curvature="0" />
    <path
       d="M 8.78698e-6,2.10554 C 0.863804,1.38621 1.72759,0.37917 2.73535,0.0914405 4.31897,-0.340154 5.32673,0.810773 5.47069,2.39329 5.61466,3.9758 4.6069,5.1267 3.02328,4.98283 2.01552,4.83897 1.15172,3.83194 0.143961,3.25648 0.143961,2.82489 8.78698e-6,2.39327 8.78698e-6,2.10554 Z"
       id="path50_fill"
       inkscape:connector-curvature="0" />
    <path
       d="M 1.72759,5.36326 C 1.15173,4.3562 -4.39349e-6,3.20531 -4.39349e-6,2.19826 0.143961,1.33507 1.58363,0.18415 2.44742,0.0402849 4.03104,-0.247445 5.0388,1.04732 4.75087,2.62983 4.46294,3.63689 3.45518,4.50007 2.73535,5.36326 c -0.28793,0 -0.57586,0 -1.00776,0 z"
       id="path51_fill"
       inkscape:connector-curvature="0" />
    <path
       d="M 5.27428,2.87728 C 4.26652,3.45274 3.40272,4.60368 2.39496,4.74755 0.811338,4.89141 -0.340397,3.5966 0.0915003,2.15795 0.379432,1.1509 1.67513,-1.75616e-5 2.68289,-1.75616e-5 3.54668,-1.75616e-5 4.55445,1.2948 5.41824,2.01413 5.27428,2.30185 5.27428,2.58955 5.27428,2.87728 Z"
       id="path52_fill"
       inkscape:connector-curvature="0" />
    <path
       d="M 5.33888,3.10549 C 4.33112,3.68094 3.17939,4.83184 2.3156,4.83184 1.45181,4.68797 0.156115,3.39321 0.0121495,2.38616 -0.131816,0.947513 1.01991,-0.347279 2.60354,0.0843156 3.6113,0.372045 4.47508,1.37909 5.33888,2.09841 c 0.14397,0.4316 0,0.71935 0,1.00708 z"
       id="path53_fill"
       inkscape:connector-curvature="0" />
    <path
       d="M 5.32674,2.92629 C 4.46295,3.64561 3.59914,4.65265 2.59138,4.79651 1.00776,5.08424 -8.78698e-6,3.93335 -8.78698e-6,2.35084 -8.78698e-6,0.768323 1.00777,-0.238739 2.44743,0.0489904 3.45519,0.192855 4.31898,1.19993 5.32674,1.77539 c 0,0.43159 0,0.86317 0,1.1509 z"
       id="path54_fill"
       inkscape:connector-curvature="0" />
    <path
       d="M 3.03543,1.75616e-5 C 3.75526,1.00707 4.90699,2.01409 4.90699,3.02114 c 0,0.86319 -1.2957,2.15799 -2.30346,2.44572 C 1.0199,5.89846 -0.131807,4.60366 0.0121583,3.02114 0.156124,2.01409 1.16387,1.1509 1.8837,0.143847 2.31559,-1.75681e-5 2.7475,1.75616e-5 3.03543,1.75616e-5 Z"
       id="path55_fill"
       inkscape:connector-curvature="0" />
    <path
       d="M 2.05978,5.36327 C 1.33996,4.50008 0.332182,3.6369 0.0442501,2.62984 -0.243682,1.04733 0.90804,-0.247458 2.49166,0.0402717 3.49942,0.184137 4.65116,1.47891 4.79513,2.3421 4.93909,3.20528 3.78737,4.21234 3.06754,5.21939 2.77961,5.36326 2.49168,5.36327 2.05978,5.36327 Z"
       id="path56_fill"
       inkscape:connector-curvature="0" />
    <path
       d="M 5.511,2.74452 C 4.6472,3.46385 3.78341,4.47089 2.63168,4.75862 1.04806,5.04635 -0.247638,3.75155 0.0402934,2.3129 0.184259,1.30585 1.47996,0.154923 2.48772,0.0110585 3.35151,-0.132806 4.35927,1.16199 5.36703,1.73745 5.511,2.02518 5.511,2.31293 5.511,2.74452 Z"
       id="path57_fill"
       inkscape:connector-curvature="0" />
    <path
       d="M 2.05978,5.46686 C 1.33995,4.60367 0.188218,3.74048 0.0442523,2.58957 -0.243679,1.00705 0.908054,-4.39041e-6 2.49168,-4.39041e-6 3.93134,-4.39041e-6 5.08306,0.86318 4.93909,2.44569 4.79513,3.45275 3.78737,4.45981 3.21151,5.46686 c -0.4319,0 -0.8638,0 -1.15173,0 z"
       id="path58_fill"
       inkscape:connector-curvature="0" />
    <path
       d="M 5.41823,2.77047 C 4.55444,3.48979 3.54668,4.78457 2.68289,4.78457 1.81909,4.78457 0.379432,3.48978 0.0915003,2.6266 -0.340397,1.18795 0.811338,-0.250705 2.39496,0.0370247 3.40272,0.180889 4.41048,1.18796 5.27428,1.76342 5.41824,2.05115 5.41823,2.33887 5.41823,2.77047 Z"
       id="path59_fill"
       inkscape:connector-curvature="0" />
    <path
       d="M 2.74768,0.143874 C 3.46751,1.00706 4.47529,1.87024 4.76322,2.8773 5.19512,4.45981 3.89942,5.75457 2.45976,5.46685 1.452,5.32298 0.156309,4.02823 0.0123435,3.16504 -0.131622,2.15799 1.02009,1.15092 1.59595,0 c 0.4319,0.143865 0.8638,0.143874 1.15173,0.143874 z"
       id="path60_fill"
       inkscape:connector-curvature="0" />
    <path
       d="M 2.05978,5.50389 C 1.33995,4.6407 0.188218,3.77751 0.0442523,2.6266 -0.243679,1.18795 0.908054,-0.250705 2.49168,0.0370247 3.49944,0.18089 4.93909,1.47568 4.93909,2.33887 c 0,1.00705 -1.15172,2.01412 -1.72758,3.02117 -0.4319,0.14387 -0.8638,0.14385 -1.15173,0.14385 z"
       id="path61_fill"
       inkscape:connector-curvature="0" />
    <path
       d="M 5.37099,2.8773 C 4.36323,3.45276 3.49944,4.60366 2.49168,4.74753 0.908054,4.89139 -0.243679,3.7405 0.0442523,2.30185 0.332184,1.2948 1.48391,8.78081e-6 2.3477,8.78081e-6 3.35546,8.78081e-6 4.36322,1.15091 5.22702,1.87023 5.37099,2.15796 5.37099,2.44571 5.37099,2.8773 Z"
       id="path62_fill"
       inkscape:connector-curvature="0" />
    <path
       d="M 1.87156,5.36326 C 1.15173,4.35621 -4.39349e-6,3.34917 -4.39349e-6,2.34211 -4.39349e-6,1.47892 1.43966,0.184132 2.44742,0.0402673 4.03104,-0.247462 5.0388,1.04733 4.89484,2.62984 4.75087,3.63689 3.59915,4.50008 3.02329,5.50713 2.59139,5.36327 2.15949,5.36326 1.87156,5.36326 Z"
       id="path63_fill"
       inkscape:connector-curvature="0" />
    <path
       d="M 6.06021,2.68101 C 4.33262,3.83193 3.46882,4.83897 2.46106,4.98283 0.877436,5.27056 -0.130321,3.9758 0.0136452,2.39329 0.157611,0.810773 1.16536,-0.340154 2.74899,0.0914405 3.61278,0.37917 4.47658,1.38623 6.06021,2.68101 Z"
       id="path64_fill"
       inkscape:connector-curvature="0" />
    <path
       d="M 1.73977,5.40697 C 1.16391,4.39992 0.0121736,3.53673 0.0121736,2.52968 -0.131792,0.947164 1.01994,-0.347615 2.4596,0.0839794 3.46736,0.371709 4.76305,1.66649 4.76305,2.52968 c 0,1.00705 -1.2957,2.01411 -1.87156,3.02117 C 2.45959,5.40698 2.0277,5.40697 1.73977,5.40697 Z"
       id="path65_fill"
       inkscape:connector-curvature="0" />
    <path
       d="M 5.34038,3.25646 C 4.33262,3.83192 3.46882,4.83897 2.46106,4.98283 0.87744,5.27056 -0.130327,3.9758 0.0136386,2.39329 0.0136386,0.810773 1.16537,-0.340154 2.74899,0.0914405 3.75675,0.37917 4.62055,1.38621 5.48434,2.10554 5.34038,2.53713 5.34038,2.82487 5.34038,3.25646 Z"
       id="path66_fill"
       inkscape:connector-curvature="0" />
    <path
       d="M 3.21151,-4.39041e-6 C 3.78737,1.00705 5.08306,2.01411 4.93909,3.02117 4.93909,3.88435 3.49944,5.17912 2.49168,5.32299 0.908054,5.61072 -0.243668,4.31595 0.0442632,2.73344 0.188229,1.72639 1.33994,0.863185 1.9158,-4.39041e-6 c 0.57586,0 0.86381,0 1.29571,0 z"
       id="path67_fill"
       inkscape:connector-curvature="0" />
    <path
       d="M 3.02327,-4.39041e-6 C 3.59914,1.00705 4.60691,1.87024 4.75088,2.87729 4.89485,4.45981 3.7431,5.61072 2.30344,5.32299 1.29568,5.03526 0.14397,3.74048 4.39349e-6,2.87729 4.39349e-6,1.87024 1.15174,0.863185 1.87156,-4.39041e-6 c 0.4319,0 0.86378,0 1.15171,0 z"
       id="path68_fill"
       inkscape:connector-curvature="0" />
    <path
       d="M 5.37099,2.8773 C 4.50719,3.59663 3.49943,4.60366 2.49167,4.74753 0.908049,5.03526 -0.243673,3.88435 0.0442588,2.30183 0.188225,1.29478 1.4839,8.78081e-6 2.3477,8.78081e-6 3.35546,8.78081e-6 4.36323,1.15091 5.37099,1.87023 c 0,0.28773 0,0.71935 0,1.00707 z"
       id="path69_fill"
       inkscape:connector-curvature="0" />
    <path
       d="M 1.59596,5.36326 C 1.0201,4.35621 -0.131618,3.34915 0.0123479,2.48596 0.156314,1.62278 1.45199,0.327997 2.31579,0.0402673 3.89941,-0.247462 5.05113,1.04733 4.7632,2.62984 4.61924,3.63689 3.46752,4.50007 2.74769,5.36326 c -0.4319,0 -0.8638,0 -1.15173,0 z"
       id="path70_fill"
       inkscape:connector-curvature="0" />
    <path
       d="M 3.02328,0.143874 C 3.59914,1.15093 4.75087,2.30182 4.75087,3.30887 4.60691,4.17206 3.16724,5.61071 2.30345,5.46684 1.43965,5.46684 -2.19674e-6,3.88436 -2.19674e-6,3.02117 -2.19674e-6,2.01412 1.29569,1.00705 2.01552,0 2.30345,0.143865 2.73535,0.143874 3.02328,0.143874 Z"
       id="path71_fill"
       inkscape:connector-curvature="0" />
    <path
       d="M 3.07231,8.78081e-6 C 3.64817,1.00706 4.94386,2.15795 4.79989,3.16501 4.79989,4.0282 3.36024,5.32299 2.35248,5.46685 0.768854,5.75458 -0.238916,4.45982 0.049016,2.87731 0.336948,1.87025 1.34472,1.00707 2.06455,0.143882 2.35248,1.75573e-5 2.64041,8.78081e-6 3.07231,8.78081e-6 Z"
       id="path72_fill"
       inkscape:connector-curvature="0" />
    <path
       d="M 5.18276,3.16503 C 4.175,3.74049 3.16725,5.03525 2.15949,4.89139 1.2957,4.74752 4.39349e-6,3.3089 4.39349e-6,2.44571 4.39349e-6,1.58252 1.43965,0.143856 2.30344,-8.78081e-6 3.31121,-8.78081e-6 4.31897,1.15094 5.32674,1.87026 5.18277,2.30185 5.18276,2.73344 5.18276,3.16503 Z"
       id="path73_fill"
       inkscape:connector-curvature="0" />
    <path
       d="M 3.06753,-8.78081e-6 C 3.64339,1.00704 4.9391,2.0141 4.79514,2.87729 4.65117,3.74048 3.49943,5.17914 2.49167,5.32301 0.908049,5.7546 -0.243673,4.4598 0.0442588,2.87729 0.188225,1.87023 1.33996,1.00704 1.91582,-8.78081e-6 c 0.4319,0 0.86378,0 1.15171,0 z"
       id="path74_fill"
       inkscape:connector-curvature="0" />
    <path
       d="M 5.37099,3.0322 C 4.36323,3.60766 3.49943,4.7586 2.49167,4.90247 0.908049,5.1902 -0.243673,3.89539 0.0442588,2.31288 0.33219,1.30582 1.62788,0.154938 2.49167,0.0110734 3.35547,-0.132791 4.36322,1.16197 5.22701,1.8813 5.37098,2.31289 5.37099,2.74447 5.37099,3.0322 Z"
       id="path75_fill"
       inkscape:connector-curvature="0" />
    <path
       d="M 5.2668,2.74575 C 4.40301,3.46508 3.53922,4.47212 2.53146,4.75985 0.947837,5.04758 -0.34785,3.89664 0.0840472,2.31413 0.228013,1.30708 1.52369,0.012285 2.38749,0.012285 3.25128,-0.13158 4.25904,1.01936 5.2668,1.73868 c -0.14396,0.28773 -0.14396,0.71934 0,1.00707 z"
       id="path76_fill"
       inkscape:connector-curvature="0" />
    <path
       d="M 5.22703,3.02116 C 4.36324,3.74048 3.49943,4.74752 2.49167,4.89139 0.908045,5.17912 -0.243677,3.88436 0.0442544,2.44571 0.18822,1.43866 1.48392,0.143856 2.34772,-8.78081e-6 3.35548,-8.78081e-6 4.36322,1.15094 5.37099,1.87026 5.22702,2.30185 5.22703,2.73343 5.22703,3.02116 Z"
       id="path77_fill"
       inkscape:connector-curvature="0" />
    <path
       d="M 5.22687,3.0654 C 4.21911,3.64086 3.21135,4.79175 2.34755,4.79175 1.48376,4.64789 0.188056,3.3531 0.0440905,2.48991 -0.243841,0.907394 0.90789,-0.243497 2.63548,0.0442322 3.64324,0.188097 4.50704,1.33901 5.37083,2.05833 5.22687,2.2022 5.22687,2.63381 5.22687,3.0654 Z"
       id="path78_fill"
       inkscape:connector-curvature="0" />
    <path
       d="M 5.34037,3.12142 C 4.33261,3.69688 3.46881,4.7039 2.46105,4.84777 0.877427,4.99163 -0.130329,3.84073 0.0136364,2.25822 0.157602,0.675706 1.16537,-0.331347 2.60503,0.100247 3.61279,0.387977 4.47657,1.39502 5.34037,2.11435 c 0.14396,0.14386 0.14396,0.57547 0,1.00707 z"
       id="path79_fill"
       inkscape:connector-curvature="0" />
    <path
       d="M 5.27427,3.02118 C 4.26651,3.59664 3.40272,4.60367 2.39496,4.74753 0.811334,4.8914 -0.340402,3.59663 0.0914959,2.15798 0.379428,1.15093 1.67512,8.78081e-6 2.68288,8.78081e-6 3.54668,8.78081e-6 4.55445,1.29477 5.41825,1.87023 5.27428,2.15796 5.27427,2.58958 5.27427,3.02118 Z"
       id="path80_fill"
       inkscape:connector-curvature="0" />
    <path
       d="M 5.32673,3.21379 C 4.31897,3.78925 3.45517,4.79632 2.44741,4.94019 1.00775,5.08405 -4.39349e-6,4.07698 -4.39349e-6,2.49447 -4.39349e-6,0.76809 1.15173,-0.238937 2.59138,0.0487926 3.59915,0.192657 4.46293,1.34357 5.32673,2.06289 c 0,0.4316 0,0.71931 0,1.1509 z"
       id="path81_fill"
       inkscape:connector-curvature="0" />
    <path
       d="M 2.05978,5.36327 C 1.33995,4.50008 0.188218,3.6369 0.0442523,2.62984 -0.243679,1.04733 0.908054,-0.24748 2.49168,0.0402498 3.49944,0.184115 4.65116,1.47892 4.79513,2.48597 4.93909,3.34916 3.78737,4.35621 3.21151,5.36327 2.77961,5.2194 2.34771,5.2194 2.05978,5.36327 Z"
       id="path82_fill"
       inkscape:connector-curvature="0" />
    <path
       d="M 3.06753,-8.78081e-6 C 3.78736,1.00704 4.93909,2.01411 4.93909,3.02116 4.93909,3.88435 3.49943,5.17914 2.49167,5.32301 0.908045,5.61074 -0.243677,4.31594 0.0442544,2.87729 0.18822,1.87023 1.19599,1.00704 1.91581,-8.78081e-6 c 0.4319,0 0.71983,0 1.15172,0 z"
       id="path83_fill"
       inkscape:connector-curvature="0" />
    <path
       d="M 2.89146,-8.78081e-6 C 3.61129,0.86318 4.76302,1.87022 4.76302,2.73341 4.61906,3.74047 3.46733,5.03528 2.60354,5.32301 1.01991,5.7546 -0.131818,4.4598 0.0121473,2.87729 0.156113,1.87023 1.16388,1.00704 1.88371,-8.78081e-6 c 0.28793,0 0.71982,0 1.00775,0 z"
       id="path84_fill"
       inkscape:connector-curvature="0" />
    <path
       d="M 5.26681,2.74575 C 4.40302,3.46508 3.53922,4.47212 2.53146,4.75985 0.947835,5.04758 -0.347863,3.89664 0.084034,2.31413 0.228,1.30708 1.5237,0.15615 2.53146,0.012285 3.39525,-0.13158 4.40302,1.01936 5.41078,1.73868 5.26681,2.02641 5.26681,2.45802 5.26681,2.74575 Z"
       id="path85_fill"
       inkscape:connector-curvature="0" />
    <path
       d="M 1.92059,5.46687 C 1.20076,4.60368 0.192995,3.7405 0.0490292,2.73345 -0.238902,1.15094 0.768845,0.143847 2.35247,-1.75616e-5 3.93609,-1.75616e-5 5.08784,1.00706 4.7999,2.58958 4.65594,3.59663 3.64816,4.45982 3.0723,5.46687 c -0.4319,0 -0.86378,0 -1.15171,0 z"
       id="path86_fill"
       inkscape:connector-curvature="0" />
    <path
       d="M 5.36704,2.7445 C 4.50324,3.46382 3.63944,4.47087 2.63168,4.7586 1.04805,5.04633 -0.247645,4.03931 0.0402868,2.4568 0.184253,1.44974 1.47995,0.011076 2.34375,0.011076 3.35151,-0.132789 4.35928,1.16201 5.36704,1.73747 c 0,0.28773 0,0.7193 0,1.00703 z"
       id="path87_fill"
       inkscape:connector-curvature="0" />
    <path
       d="M 2.87931,-8.78081e-6 C 3.59914,1.00704 4.60691,1.87023 4.75087,2.87729 4.89484,4.31594 3.88708,5.7546 2.30346,5.32301 1.2957,5.17914 -4.39349e-6,3.88435 -4.39349e-6,3.02116 -4.39349e-6,2.01411 1.15173,1.00704 1.87156,-8.78081e-6 c 0.28793,0 0.71982,0 1.00775,0 z"
       id="path88_fill"
       inkscape:connector-curvature="0" />
    <path
       d="M 5.4707,3.02114 C 4.46294,3.5966 3.45518,5.03527 2.59138,4.74754 1.58362,4.45981 0.86379,3.16501 -4.39349e-6,2.30182 0.86379,1.43863 1.72759,0.143882 2.59138,1.75616e-5 3.59914,1.75616e-5 4.60691,1.15092 5.4707,1.87024 c 0,0.4316 0,0.86317 0,1.1509 z"
       id="path89_fill"
       inkscape:connector-curvature="0" />
    <path
       d="M 5.371,2.88833 C 4.36324,3.46379 3.49944,4.61474 2.49168,4.7586 0.908058,4.90247 -0.243686,3.75152 0.0442457,2.16901 0.332177,1.16196 1.62787,0.0110383 2.63563,0.0110383 3.49943,-0.132827 4.5072,1.16198 5.371,1.88131 c 0,0.28773 0,0.57543 0,1.00702 z"
       id="path90_fill"
       inkscape:connector-curvature="0" />
    <path
       d="M 2.87932,-8.78081e-6 C 3.59915,1.00704 4.60691,1.87023 4.75088,2.87729 5.03881,4.4598 3.88707,5.61072 2.30344,5.46686 1.29568,5.32299 4.39349e-6,4.02822 4.39349e-6,3.16503 4.39349e-6,2.15798 1.15173,1.15092 1.72759,0.143865 2.15949,0 2.44742,-8.78081e-6 2.87932,-8.78081e-6 Z"
       id="path91_fill"
       inkscape:connector-curvature="0" />
    <path
       d="M 3.02329,-4.39041e-6 C 3.59915,1.00705 4.60691,1.87024 4.75087,2.87729 4.89484,4.45981 3.74311,5.61072 2.15948,5.32299 1.15172,5.03526 -4.39349e-6,3.74049 -4.39349e-6,2.73344 -4.39349e-6,1.87025 1.15173,0.863185 1.87156,-4.39041e-6 c 0.43189,0 0.71983,0 1.15173,0 z"
       id="path92_fill"
       inkscape:connector-curvature="0" />
    <path
       d="M 1.73867,5.2194 C 1.16281,4.21235 -0.132878,3.06142 0.0110882,2.19823 0.155054,1.33504 1.45074,0.184123 2.4585,0.0402586 4.04213,-0.247471 5.0499,1.04732 4.76196,2.62983 4.618,3.63688 3.46626,4.50009 2.74643,5.36327 2.4585,5.21941 2.17057,5.2194 1.73867,5.2194 Z"
       id="path93_fill"
       inkscape:connector-curvature="0" />
    <path
       d="M 1.92058,5.323 C 1.34471,4.31594 0.336948,3.45276 0.049016,2.4457 -0.238916,1.00705 0.768854,4.39041e-6 2.35248,4.39041e-6 3.9361,4.39041e-6 5.08783,1.00706 4.94387,2.58958 4.7999,3.59663 3.64817,4.45982 3.07231,5.46687 2.64041,5.32301 2.20851,5.323 1.92058,5.323 Z"
       id="path94_fill"
       inkscape:connector-curvature="0" />
    <path
       d="M 5.37099,2.87729 C 4.36322,3.45275 3.49943,4.60367 2.49167,4.74753 0.908045,5.03526 -0.243677,3.74048 0.0442544,2.15796 0.18822,1.29477 1.62788,-8.78081e-6 2.63564,-8.78081e-6 3.49944,-8.78081e-6 4.5072,1.15091 5.51496,1.87024 5.37099,2.15797 5.37099,2.44569 5.37099,2.87729 Z"
       id="path95_fill"
       inkscape:connector-curvature="0" />
    <path
       d="M 1.92057,5.46686 C 1.20074,4.45981 0.192999,3.59662 0.0490336,2.58957 -0.238898,1.15092 0.768849,0.14386 2.35247,-4.39041e-6 3.9361,-4.39041e-6 5.08783,0.86318 4.94386,2.44569 4.7999,3.45275 3.79213,4.31594 3.0723,5.32299 2.64041,5.46685 2.2085,5.46686 1.92057,5.46686 Z"
       id="path96_fill"
       inkscape:connector-curvature="0" />
    <path
       d="M 5.41077,3.03223 C 4.40301,3.75155 3.53922,4.75861 2.53146,4.90247 0.947833,5.1902 -0.347855,3.89542 0.0840428,2.3129 0.371974,1.30585 1.66766,0.154945 2.53146,0.0110804 3.39525,-0.132784 4.40301,1.16199 5.41077,1.73745 c 0,0.57546 0,0.86318 0,1.29478 z"
       id="path97_fill"
       inkscape:connector-curvature="0" />
    <path
       d="M 5.36703,2.74451 C 4.50324,3.46384 3.63945,4.61475 2.63169,4.75861 1.04806,5.04634 -0.247632,3.89543 0.0403,2.31291 0.184266,1.30586 1.47995,0.0110672 2.48771,0.0110672 3.35151,-0.132798 4.35927,1.162 5.36703,1.73746 c 0,0.28773 0,0.57546 0,1.00705 z"
       id="path98_fill"
       inkscape:connector-curvature="0" />
    <path
       d="M 5.26682,2.88945 C 4.40302,3.60877 3.39525,4.75967 2.53145,4.75967 1.52369,4.61581 0.228004,3.46489 0.0840384,2.6017 -0.347859,1.01919 0.947829,-0.131715 2.53145,0.0121498 3.53921,0.156015 4.40301,1.16305 5.41077,1.88237 5.2668,2.02624 5.26682,2.45785 5.26682,2.88945 Z"
       id="path99_fill"
       inkscape:connector-curvature="0" />
    <path
       d="M 1.77662,5.32302 C 1.20076,4.31596 0.192999,3.45277 0.0490336,2.44572 -0.238898,1.00707 0.768849,0 2.35247,0 4.08006,0 5.08782,1.00704 4.79989,2.58955 4.65592,3.5966 3.50421,4.45979 2.92835,5.46685 2.49645,5.32298 2.06455,5.32302 1.77662,5.32302 Z"
       id="path100_fill"
       inkscape:connector-curvature="0" />
    <path
       d="M 1.74119,5.33665 C 1.16533,4.32959 0.0136041,3.4664 0.0136041,2.45935 -0.130362,0.876837 0.877403,-0.130234 2.60499,0.0136312 4.18862,0.157496 5.19638,1.16453 4.76448,2.60318 4.62051,3.61023 3.46878,4.47342 2.89292,5.48048 2.46102,5.33661 2.02912,5.33665 1.74119,5.33665 Z"
       id="path101_fill"
       inkscape:connector-curvature="0" />
    <path
       d="M 5.27428,3.16504 C 4.26652,3.7405 3.40273,4.74753 2.39497,4.89139 0.811342,5.17912 -0.340393,3.88436 0.0915047,2.30185 0.379436,1.29479 1.67512,0 2.53892,0 3.54668,0 4.55444,1.1509 5.41824,1.87022 5.27427,2.30182 5.27428,2.73345 5.27428,3.16504 Z"
       id="path102_fill"
       inkscape:connector-curvature="0" />
    <path
       d="M 2.3156,-8.78081e-6 C 3.46732,1.5825 4.61906,2.44568 4.90699,3.45274 5.33888,5.03525 4.18716,6.04234 2.60354,6.1862 1.01991,6.33007 -0.131818,5.17912 0.0121473,3.59661 0.0121473,2.58956 1.16387,1.72637 2.3156,-8.78081e-6 Z"
       id="path103_fill"
       inkscape:connector-curvature="0" />
    <path
       d="M 5.371,2.88839 C 4.36324,3.60771 3.49944,4.61475 2.49168,4.75861 0.908058,5.04634 -0.243686,3.75154 0.0442457,2.3129 0.188211,1.30584 1.62789,0.154958 2.49168,0.0110936 3.35548,-0.132771 4.36324,1.16199 5.371,1.73744 c 0,0.4316 0,0.86322 0,1.15095 z"
       id="path104_fill"
       inkscape:connector-curvature="0" />
    <path
       d="M 3.06755,0.143865 C 3.64341,1.15092 4.9391,2.15797 4.79513,3.02116 4.65116,4.02821 3.35546,5.32299 2.49167,5.46686 0.908045,5.75459 -0.243677,4.4598 0.0442544,2.87729 0.18822,1.87023 1.33994,1.00704 2.05977,-8.78081e-6 2.3477,0.143856 2.77961,0.143865 3.06755,0.143865 Z"
       id="path105_fill"
       inkscape:connector-curvature="0" />
    <path
       d="M 3.07231,0 C 3.64817,1.00705 4.7999,1.87024 4.94387,2.8773 5.2318,4.45981 4.08007,5.46687 2.35248,5.46687 0.768854,5.46687 -0.238916,4.31594 0.049016,2.8773 0.192982,1.87024 1.20075,1.00705 1.92058,0 2.35247,0 2.78438,0 3.07231,0 Z"
       id="path106_fill"
       inkscape:connector-curvature="0" />
    <path
       d="M 5.37083,3.0654 C 4.36306,3.64086 3.3553,4.93562 2.49151,4.79175 1.62771,4.64789 0.332027,3.3531 0.0440949,2.48991 -0.243837,0.907395 0.907894,-0.243497 2.63548,0.0442322 3.64324,0.188097 4.50703,1.33901 5.37083,2.05833 c 0,0.14387 0,0.57548 0,1.00707 z"
       id="path107_fill"
       inkscape:connector-curvature="0" />
    <path
       d="M 8.78698e-6,1.91052 C 1.00777,1.33506 1.87156,0.184137 2.87933,0.0402717 4.46295,-0.247458 5.61467,1.04733 5.32674,2.62984 5.03881,3.6369 3.74312,4.78781 2.87933,4.78781 2.01553,4.78781 1.00776,3.63689 0.143961,2.91757 -4.39778e-6,2.62984 8.78698e-6,2.19825 8.78698e-6,1.91052 Z"
       id="path108_fill"
       inkscape:connector-curvature="0" />
    <path
       d="M 1.88516,5.46688 C 1.3093,4.45983 0.157566,3.59664 0.0135997,2.58958 -0.130366,1.00707 0.877399,-8.78081e-6 2.60499,-8.78081e-6 4.18861,-8.78081e-6 5.19638,1.1509 4.90845,2.73341 4.76448,3.74047 3.61275,4.60369 2.89292,5.46688 c -0.28794,0 -0.57586,0 -1.00776,0 z"
       id="path109_fill"
       inkscape:connector-curvature="0" />
    <path
       d="M 1.73989,5.36722 C 1.02006,4.36017 -0.131659,3.35311 0.0123068,2.48993 0.156273,1.48287 1.30801,0.188093 2.31577,0.0442278 3.75543,-0.243502 5.05111,0.907412 4.76318,2.48993 4.61922,3.49698 3.46749,4.36017 2.89162,5.36722 c -0.57586,0 -0.8638,0 -1.15173,0 z"
       id="path110_fill"
       inkscape:connector-curvature="0" />
    <path
       d="M 3.06771,0.143856 C 3.64357,1.15091 4.79528,2.0141 4.93925,3.02115 5.22718,4.60366 4.07547,5.61074 2.34788,5.46687 0.90822,5.32301 -0.243515,4.45979 0.0444167,2.87728 0.332348,1.87022 1.19615,1.00704 1.91598,-1.75616e-5 2.34787,0.143847 2.77978,0.143856 3.06771,0.143856 Z"
       id="path111_fill"
       inkscape:connector-curvature="0" />
    <path
       d="M 5.32673,3.06539 C 4.46294,3.78472 3.59915,4.79175 2.59139,4.93562 1.00777,5.22335 0,4.07243 0,2.48992 0,0.907408 1.00777,-0.243506 2.59139,0.0442234 3.59915,0.188088 4.46294,1.33901 5.32673,1.91447 c 0,0.43159 0,0.71933 0,1.15092 z"
       id="path112_fill"
       inkscape:connector-curvature="0" />
    <path
       d="M 5.36715,3.06537 C 4.35939,3.78469 3.35162,4.93564 2.34386,4.93564 1.48007,4.93564 0.184388,3.49697 0.0404226,2.48992 -0.247509,0.907403 1.04818,-0.243511 2.48784,0.044219 3.4956,0.188084 4.35938,1.33901 5.22318,1.91447 5.36715,2.34606 5.36715,2.77764 5.36715,3.06537 Z"
       id="path113_fill"
       inkscape:connector-curvature="0" />
    <path
       d="M 1.73867,5.323 C 1.16281,4.31594 -0.132882,3.16502 0.0110838,2.30183 0.0110838,1.43864 1.59472,4.39041e-6 2.31455,4.39041e-6 3.17834,4.39041e-6 4.61799,1.43864 4.61799,2.30183 c 0,1.00705 -1.15174,2.01411 -1.87156,3.02117 -0.28794,0 -0.57586,0 -1.00776,0 z"
       id="path114_fill"
       inkscape:connector-curvature="0" />
    <path
       d="M 5.48435,3.06143 C 4.62056,3.78075 3.75676,4.78781 2.60503,4.93167 1.16538,5.2194 0.157611,4.21234 0.0136452,2.62983 -0.130321,1.04732 0.877436,-0.247471 2.46106,0.0402586 3.46882,0.184123 4.33262,1.19118 5.34038,1.91051 5.48434,2.3421 5.48435,2.7737 5.48435,3.06143 Z"
       id="path115_fill"
       inkscape:connector-curvature="0" />
    <path
       d="M 2.06454,5.36327 C 1.34471,4.50008 0.336956,3.63688 0.0490248,2.62983 -0.238907,1.04731 0.768863,-0.247454 2.35249,0.0402761 3.36025,0.184141 4.65593,1.33506 4.7999,2.19825 4.94387,3.2053 3.79213,4.21235 3.21627,5.36327 c -0.4319,0 -0.8638,0 -1.15173,0 z"
       id="path116_fill"
       inkscape:connector-curvature="0" />
    <path
       d="M 5.36704,2.88964 C 4.50324,3.60897 3.63944,4.61601 2.63168,4.90374 1.04805,5.19147 -0.247645,4.04054 0.0402868,2.45802 0.184253,1.45097 1.47995,0.156213 2.34375,0.012348 3.20754,-0.131517 4.2153,1.01937 5.22306,1.59483 5.36703,2.17028 5.36704,2.45805 5.36704,2.88964 Z"
       id="path117_fill"
       inkscape:connector-curvature="0" />
    <path
       d="M 5.27428,3.02116 C 4.26652,3.59662 3.40272,4.60367 2.39496,4.74753 0.811338,4.8914 -0.340397,3.59661 0.0915003,2.15796 0.379432,1.15091 1.67513,-8.78081e-6 2.68289,-8.78081e-6 3.54668,-8.78081e-6 4.55445,1.15091 5.41824,1.87024 5.27428,2.15797 5.27428,2.58957 5.27428,3.02116 Z"
       id="path118_fill"
       inkscape:connector-curvature="0" />
  </defs>
  <g
     id="Page-1"
     style="fill:none;fill-rule:evenodd;stroke:none;stroke-width:1"
     transform="translate(0,-185.804)">
    <g
       id="Desktop-HD-Copy"
       transform="translate(0,-1862)"
       style="fill:url(#linearGradient-1)">
      <path
         style="fill:url(#linearGradient4400);stroke-width:0.75"
         d="m 0,2047.8038 v 451.1543 L 1185.3604,2603.0001 1920,2502.4846 V 2047.8038 H 960 Z"
         id="Path-Copy-2"
         inkscape:connector-curvature="0"
         sodipodi:nodetypes="ccccccc" />
    </g>
  </g>
</svg>
