<?xml version="1.0" encoding="UTF-8" standalone="no"?>
<!-- Created with Inkscape (http://www.inkscape.org/) -->

<svg
   xmlns:dc="http://purl.org/dc/elements/1.1/"
   xmlns:cc="http://creativecommons.org/ns#"
   xmlns:rdf="http://www.w3.org/1999/02/22-rdf-syntax-ns#"
   xmlns:svg="http://www.w3.org/2000/svg"
   xmlns="http://www.w3.org/2000/svg"
   xmlns:sodipodi="http://sodipodi.sourceforge.net/DTD/sodipodi-0.dtd"
   xmlns:inkscape="http://www.inkscape.org/namespaces/inkscape"
   width="200"
   height="41"
   viewBox="0 0 52.916665 10.847917"
   version="1.1"
   id="svg1903"
   inkscape:version="0.92.3 (2405546, 2018-03-11)"
   sodipodi:docname="email-share-button.svg">
  <defs
     id="defs1897" />
  <sodipodi:namedview
     id="base"
     pagecolor="#ffffff"
     bordercolor="#666666"
     borderopacity="1.0"
     inkscape:pageopacity="0.0"
     inkscape:pageshadow="2"
     inkscape:zoom="3.959798"
     inkscape:cx="57.682553"
     inkscape:cy="45.223021"
     inkscape:document-units="px"
     inkscape:current-layer="g628"
     showgrid="false"
     units="px"
     inkscape:window-width="1366"
     inkscape:window-height="692"
     inkscape:window-x="0"
     inkscape:window-y="0"
     inkscape:window-maximized="1" />
  <metadata
     id="metadata1900">
    <rdf:RDF>
      <cc:Work
         rdf:about="">
        <dc:format>image/svg+xml</dc:format>
        <dc:type
           rdf:resource="http://purl.org/dc/dcmitype/StillImage" />
        <dc:title></dc:title>
      </cc:Work>
    </rdf:RDF>
  </metadata>
  <g
     inkscape:label="Layer 1"
     inkscape:groupmode="layer"
     id="layer1"
     transform="translate(0,-286.15207)">
    <g
       transform="matrix(0.59506504,0,0,0.59506504,-27.756271,205.11468)"
       id="g505">
      <g
         id="g628"
         transform="translate(-10.156242,-17.907058)">
        <path
           id="path489"
           d="M 144.43205,172.31927 H 58.094477 c -0.713097,0 -1.294139,-0.58209 -1.294139,-1.29646 v -15.63688 c 0,-0.71437 0.581042,-1.29646 1.294139,-1.29646 h 86.337573 c 0.71309,0 1.29414,0.58209 1.29414,1.29646 v 15.63688 c -0.0265,0.71437 -0.58105,1.29646 -1.29414,1.29646 z"
           class="st0"
           inkscape:connector-curvature="0"
           style="fill:#666666;stroke-width:0.26434657" />
        <g
           id="g600"
           transform="translate(1.3777723,10e-6)">
          <g
             id="g1694"
             transform="translate(0,1.267555e-6)">
            <g
               transform="translate(4.7625002,0.0079303)"
               id="g503">
              <text
                 id="text501"
                 y="165.8956"
                 x="75.959213"
                 style="font-style:normal;font-weight:normal;font-size:7.34467936px;line-height:1.25;font-family:sans-serif;letter-spacing:0px;word-spacing:0px;fill:#ffffff;fill-opacity:1;stroke:none;stroke-width:0.18361698"
                 xml:space="preserve"><tspan
                   style="font-style:normal;font-variant:normal;font-weight:bold;font-stretch:normal;font-family:Lato;-inkscape-font-specification:'Lato Bold';fill:#ffffff;stroke-width:0.18361698"
                   y="165.8956"
                   x="75.959213"
                   id="tspan499"
                   sodipodi:role="line">Share via Email</tspan></text>
            </g>
            <g
               style="fill:#ffffff"
               transform="matrix(0.03998033,0,0,0.03998033,62.092005,156.2911)"
               id="g574">
              <g
                 style="fill:#ffffff"
                 id="g515">
                <path
                   style="fill:#ffffff"
                   inkscape:connector-curvature="0"
                   d="m 339.798,260.429 c 0.13,-0.026 0.257,-0.061 0.385,-0.094 0.109,-0.028 0.219,-0.051 0.326,-0.084 0.125,-0.038 0.247,-0.085 0.369,-0.129 0.108,-0.039 0.217,-0.074 0.324,-0.119 0.115,-0.048 0.226,-0.104 0.338,-0.157 0.109,-0.052 0.22,-0.1 0.327,-0.158 0.107,-0.057 0.208,-0.122 0.312,-0.184 0.107,-0.064 0.215,-0.124 0.319,-0.194 0.111,-0.074 0.214,-0.156 0.321,-0.236 0.09,-0.067 0.182,-0.13 0.27,-0.202 0.162,-0.133 0.316,-0.275 0.466,-0.421 0.027,-0.026 0.056,-0.048 0.083,-0.075 0.028,-0.028 0.052,-0.059 0.079,-0.088 0.144,-0.148 0.284,-0.3 0.416,-0.46 0.077,-0.094 0.144,-0.192 0.216,-0.289 0.074,-0.1 0.152,-0.197 0.221,-0.301 0.074,-0.111 0.139,-0.226 0.207,-0.34 0.057,-0.096 0.118,-0.19 0.171,-0.289 0.062,-0.115 0.114,-0.234 0.169,-0.351 0.049,-0.104 0.101,-0.207 0.146,-0.314 0.048,-0.115 0.086,-0.232 0.128,-0.349 0.041,-0.114 0.085,-0.227 0.12,-0.343 0.036,-0.118 0.062,-0.238 0.092,-0.358 0.029,-0.118 0.063,-0.234 0.086,-0.353 0.028,-0.141 0.045,-0.283 0.065,-0.425 0.014,-0.1 0.033,-0.199 0.043,-0.3 0.025,-0.249 0.038,-0.498 0.038,-0.748 V 92.76 c 0,-4.143 -3.357,-7.5 -7.5,-7.5 h -236.25 c -0.066,0 -0.13,0.008 -0.196,0.01 -0.143,0.004 -0.285,0.01 -0.427,0.022 -0.113,0.009 -0.225,0.022 -0.337,0.037 -0.128,0.016 -0.255,0.035 -0.382,0.058 -0.119,0.021 -0.237,0.046 -0.354,0.073 -0.119,0.028 -0.238,0.058 -0.356,0.092 -0.117,0.033 -0.232,0.069 -0.346,0.107 -0.117,0.04 -0.234,0.082 -0.349,0.128 -0.109,0.043 -0.216,0.087 -0.322,0.135 -0.118,0.053 -0.235,0.11 -0.351,0.169 -0.099,0.051 -0.196,0.103 -0.292,0.158 -0.116,0.066 -0.23,0.136 -0.343,0.208 -0.093,0.06 -0.184,0.122 -0.274,0.185 -0.106,0.075 -0.211,0.153 -0.314,0.235 -0.094,0.075 -0.186,0.152 -0.277,0.231 -0.09,0.079 -0.179,0.158 -0.266,0.242 -0.099,0.095 -0.194,0.194 -0.288,0.294 -0.047,0.05 -0.097,0.094 -0.142,0.145 -0.027,0.03 -0.048,0.063 -0.074,0.093 -0.094,0.109 -0.182,0.223 -0.27,0.338 -0.064,0.084 -0.13,0.168 -0.19,0.254 -0.078,0.112 -0.15,0.227 -0.222,0.343 -0.059,0.095 -0.12,0.189 -0.174,0.286 -0.063,0.112 -0.118,0.227 -0.175,0.342 -0.052,0.105 -0.106,0.21 -0.153,0.317 -0.049,0.113 -0.092,0.23 -0.135,0.345 -0.043,0.113 -0.087,0.225 -0.124,0.339 -0.037,0.115 -0.067,0.232 -0.099,0.349 -0.032,0.12 -0.066,0.239 -0.093,0.36 -0.025,0.113 -0.042,0.228 -0.062,0.342 -0.022,0.13 -0.044,0.26 -0.06,0.39 -0.013,0.108 -0.019,0.218 -0.027,0.328 -0.01,0.14 -0.019,0.28 -0.021,0.421 -0.001,0.041 -0.006,0.081 -0.006,0.122 v 46.252 c 0,4.143 3.357,7.5 7.5,7.5 4.143,0 7.5,-3.357 7.5,-7.5 v -29.595 l 66.681,59.037 c -0.348,0.245 -0.683,0.516 -0.995,0.827 l -65.687,65.687 v -49.288 c 0,-4.143 -3.357,-7.5 -7.5,-7.5 -4.143,0 -7.5,3.357 -7.5,7.5 v 9.164 h -38.75 c -4.143,0 -7.5,3.357 -7.5,7.5 0,4.143 3.357,7.5 7.5,7.5 h 38.75 v 43.231 c 0,4.143 3.357,7.5 7.5,7.5 h 236.25 c 0.247,0 0.494,-0.013 0.74,-0.037 0.115,-0.011 0.226,-0.033 0.339,-0.049 0.13,-0.018 0.258,-0.033 0.386,-0.058 z m -8.964,-25.462 -65.688,-65.687 c -0.042,-0.042 -0.087,-0.077 -0.13,-0.117 l 49.383,-41.897 c 3.158,-2.68 3.546,-7.412 0.866,-10.571 -2.678,-3.157 -7.41,-3.547 -10.571,-0.866 l -84.381,71.59 -98.444,-87.158 H 330.834 Z M 185.878,179.888 c 0.535,-0.535 0.969,-1.131 1.308,-1.765 l 28.051,24.835 c 1.418,1.255 3.194,1.885 4.972,1.885 1.726,0 3.451,-0.593 4.853,-1.781 l 28.587,-24.254 c 0.26,0.38 0.553,0.743 0.89,1.08 l 65.687,65.687 H 120.191 Z"
                   id="path507" />
                <path
                   style="fill:#ffffff"
                   inkscape:connector-curvature="0"
                   d="m 7.5,170.676 h 126.667 c 4.143,0 7.5,-3.357 7.5,-7.5 0,-4.143 -3.357,-7.5 -7.5,-7.5 H 7.5 c -4.143,0 -7.5,3.357 -7.5,7.5 0,4.143 3.357,7.5 7.5,7.5 z"
                   id="path509" />
                <path
                   style="fill:#ffffff"
                   inkscape:connector-curvature="0"
                   d="M 20.625,129.345 H 77.5 c 4.143,0 7.5,-3.357 7.5,-7.5 0,-4.143 -3.357,-7.5 -7.5,-7.5 H 20.625 c -4.143,0 -7.5,3.357 -7.5,7.5 0,4.143 3.357,7.5 7.5,7.5 z"
                   id="path511" />
                <path
                   style="fill:#ffffff"
                   inkscape:connector-curvature="0"
                   d="m 62.5,226.51 h -55 c -4.143,0 -7.5,3.357 -7.5,7.5 0,4.143 3.357,7.5 7.5,7.5 h 55 c 4.143,0 7.5,-3.357 7.5,-7.5 0,-4.143 -3.357,-7.5 -7.5,-7.5 z"
                   id="path513" />
              </g>
              <g
                 style="fill:#ffffff"
                 id="g517" />
              <g
                 style="fill:#ffffff"
                 id="g519" />
              <g
                 style="fill:#ffffff"
                 id="g521" />
              <g
                 style="fill:#ffffff"
                 id="g523" />
              <g
                 style="fill:#ffffff"
                 id="g525" />
              <g
                 style="fill:#ffffff"
                 id="g527" />
              <g
                 style="fill:#ffffff"
                 id="g529" />
              <g
                 style="fill:#ffffff"
                 id="g531" />
              <g
                 style="fill:#ffffff"
                 id="g533" />
              <g
                 style="fill:#ffffff"
                 id="g535" />
              <g
                 style="fill:#ffffff"
                 id="g537" />
              <g
                 style="fill:#ffffff"
                 id="g539" />
              <g
                 style="fill:#ffffff"
                 id="g541" />
              <g
                 style="fill:#ffffff"
                 id="g543" />
              <g
                 style="fill:#ffffff"
                 id="g545" />
            </g>
          </g>
        </g>
      </g>
    </g>
  </g>
</svg>
