<?xml version="1.0" encoding="UTF-8" standalone="no"?>
<!-- Created with Inkscape (http://www.inkscape.org/) -->

<svg
   xmlns:dc="http://purl.org/dc/elements/1.1/"
   xmlns:cc="http://creativecommons.org/ns#"
   xmlns:rdf="http://www.w3.org/1999/02/22-rdf-syntax-ns#"
   xmlns:svg="http://www.w3.org/2000/svg"
   xmlns="http://www.w3.org/2000/svg"
   xmlns:sodipodi="http://sodipodi.sourceforge.net/DTD/sodipodi-0.dtd"
   xmlns:inkscape="http://www.inkscape.org/namespaces/inkscape"
   width="200"
   height="41"
   viewBox="0 0 52.916665 10.847917"
   version="1.1"
   id="svg1771"
   inkscape:version="0.92.3 (2405546, 2018-03-11)"
   sodipodi:docname="facebook-share-button.svg">
  <defs
     id="defs1765" />
  <sodipodi:namedview
     id="base"
     pagecolor="#ffffff"
     bordercolor="#666666"
     borderopacity="1.0"
     inkscape:pageopacity="0.0"
     inkscape:pageshadow="2"
     inkscape:zoom="1.4"
     inkscape:cx="9.9789734"
     inkscape:cy="19.245774"
     inkscape:document-units="px"
     inkscape:current-layer="g1830"
     showgrid="false"
     units="px"
     inkscape:window-width="1366"
     inkscape:window-height="692"
     inkscape:window-x="0"
     inkscape:window-y="0"
     inkscape:window-maximized="1" />
  <metadata
     id="metadata1768">
    <rdf:RDF>
      <cc:Work
         rdf:about="">
        <dc:format>image/svg+xml</dc:format>
        <dc:type
           rdf:resource="http://purl.org/dc/dcmitype/StillImage" />
        <dc:title></dc:title>
      </cc:Work>
    </rdf:RDF>
  </metadata>
  <g
     inkscape:label="Layer 1"
     inkscape:groupmode="layer"
     id="layer1"
     transform="translate(0,-286.15207)">
    <g
       id="g468"
       transform="translate(-71.787266,157.85782)">
      <g
         id="g1820"
         transform="matrix(0.59506504,0,0,0.59506504,38.239261,36.605718)">
        <g
           id="g1830">
          <g
             id="g1840">
            <path
               style="fill:#3b5899;stroke-width:0.26434657"
               inkscape:connector-curvature="0"
               class="st0"
               d="M 144.00875,172.31133 H 57.671178 c -0.713097,0 -1.294139,-0.58209 -1.294139,-1.29646 v -15.63688 c 0,-0.71437 0.581042,-1.29646 1.294139,-1.29646 h 86.337572 c 0.71309,0 1.29414,0.58209 1.29414,1.29646 v 15.63688 c -0.0264,0.71437 -0.58105,1.29646 -1.29414,1.29646 z"
               id="path136" />
            <g
               id="g453"
               transform="translate(1.1925642,-0.01322848)">
              <g
                 transform="matrix(0.26458333,0,0,0.26458333,78.310997,95.158826)"
                 id="g175">
                <g
                   id="H46ECK_1_">
                  <g
                     id="g140">
                    <path
                       id="path138"
                       d="m -44.2,255.9 c -1.5,0 -2.9,0 -4.4,0 0,0.1 0,4.8 0,5.1 0.1,0 0.1,0 0.2,0 1.3,0 2.7,0 4,0 0.1,0 0.1,0 0.2,0 0,4.3 0,8.7 0,13 h -0.1 c 0,0 0,0 -0.1,0 -5.3,0 -10.6,0 -15.9,0 -0.3,0 -0.6,-0.1 -0.9,-0.2 -0.6,-0.3 -0.9,-0.9 -1,-1.6 v -0.1 c 0,-9.9 0,-19.8 0,-29.7 0,-0.3 0.1,-0.7 0.2,-1 0.4,-0.6 0.9,-1 1.6,-1 0,0 0,0 0.1,0 9.9,0 19.9,0 29.8,0 0.5,0 0.9,0.1 1.2,0.4 0.4,0.4 0.7,0.8 0.7,1.4 0,0.9 0,1.8 0,2.7 0,9 0,18.1 0,27.1 0,0.3 0,0.5 -0.1,0.7 -0.3,0.7 -1,1.2 -1.7,1.2 -2.8,0 -5.6,0 -8.4,0 h -0.1 c 0,-4.3 0,-8.7 0,-13 0.3,0 0.6,0 0.9,0 0.3,0 0.6,0 0.9,0 0.3,0 0.6,0 0.9,0 0.3,0 0.6,0 0.9,0 0.3,0 0.6,0 0.9,0 0.1,-0.1 0.7,-4.9 0.7,-5.1 -1.7,0 -3.3,0 -5,0 0,-0.1 0,-0.1 0,-0.1 0,-1.1 0,-2.2 0,-3.3 0,-0.3 0,-0.6 0.1,-0.9 0.2,-0.7 0.6,-1.1 1.3,-1.3 0.3,-0.1 0.6,-0.1 1,-0.1 0.9,0 1.8,0 2.7,0 0.1,0 0.1,0 0.2,0 0,-1.5 0,-3 0,-4.5 -0.2,0 -0.4,0 -0.6,-0.1 -0.7,0 -1.5,-0.1 -2.2,-0.1 -0.5,0 -1,0 -1.6,0 -1.2,0 -2.3,0.3 -3.3,0.9 -1.2,0.7 -1.9,1.7 -2.4,2.9 -0.2,0.6 -0.3,1.2 -0.4,1.8 0,0.4 -0.1,0.7 -0.1,1.1 0,1.2 0,2.4 0,3.6 -0.2,0.1 -0.2,0.2 -0.2,0.2 z"
                       class="st1"
                       inkscape:connector-curvature="0"
                       style="fill:#ffffff" />
                  </g>
                </g>
              </g>
              <text
                 xml:space="preserve"
                 style="font-style:normal;font-weight:normal;font-size:7.34467936px;line-height:1.25;font-family:sans-serif;letter-spacing:0px;word-spacing:0px;fill:#ffffff;fill-opacity:1;stroke:none;stroke-width:0.18361698"
                 x="75.959213"
                 y="165.8956"
                 id="text297"><tspan
                   sodipodi:role="line"
                   id="tspan295"
                   x="75.959213"
                   y="165.8956"
                   style="font-style:normal;font-variant:normal;font-weight:bold;font-stretch:normal;font-family:Lato;-inkscape-font-specification:'Lato Bold';fill:#ffffff;stroke-width:0.18361698">Share on Facebook</tspan></text>
            </g>
          </g>
        </g>
      </g>
    </g>
  </g>
</svg>
