<?xml version="1.0" encoding="UTF-8" standalone="no"?>
<!-- Created with Inkscape (http://www.inkscape.org/) -->

<svg
   xmlns:dc="http://purl.org/dc/elements/1.1/"
   xmlns:cc="http://creativecommons.org/ns#"
   xmlns:rdf="http://www.w3.org/1999/02/22-rdf-syntax-ns#"
   xmlns:svg="http://www.w3.org/2000/svg"
   xmlns="http://www.w3.org/2000/svg"
   xmlns:sodipodi="http://sodipodi.sourceforge.net/DTD/sodipodi-0.dtd"
   xmlns:inkscape="http://www.inkscape.org/namespaces/inkscape"
   width="650"
   height="650"
   viewBox="0 0 171.97916 171.97917"
   version="1.1"
   id="svg667"
   inkscape:version="0.92.3 (2405546, 2018-03-11)"
   sodipodi:docname="favicon.svg"
   inkscape:export-filename="/home/abderrahim/Desktop/favicon.ico.png"
   inkscape:export-xdpi="9.4523077"
   inkscape:export-ydpi="9.4523077">
  <defs
     id="defs661" />
  <sodipodi:namedview
     id="base"
     pagecolor="#ffffff"
     bordercolor="#666666"
     borderopacity="1.0"
     inkscape:pageopacity="0.0"
     inkscape:pageshadow="2"
     inkscape:zoom="0.35"
     inkscape:cx="-944.28572"
     inkscape:cy="331.42857"
     inkscape:document-units="px"
     inkscape:current-layer="g22"
     showgrid="false"
     units="px"
     inkscape:window-width="1366"
     inkscape:window-height="685"
     inkscape:window-x="0"
     inkscape:window-y="0"
     inkscape:window-maximized="1" />
  <metadata
     id="metadata664">
    <rdf:RDF>
      <cc:Work
         rdf:about="">
        <dc:format>image/svg+xml</dc:format>
        <dc:type
           rdf:resource="http://purl.org/dc/dcmitype/StillImage" />
        <dc:title />
      </cc:Work>
    </rdf:RDF>
  </metadata>
  <g
     inkscape:label="Layer 1"
     inkscape:groupmode="layer"
     id="layer1"
     transform="translate(0,-125.02082)">
    <g
       style="fill:#ffffff"
       id="g645"
       inkscape:export-filename="/media/abderrahim/DATA/Projects/wws/live/assets/images/favicon.ico.png"
       inkscape:export-xdpi="20.48"
       inkscape:export-ydpi="20.48"
       transform="matrix(0.80287724,0,0,0.80383273,-1028.2496,-299.7434)">
      <g
         id="g786">
        <g
           id="g1947"
           transform="matrix(2.1666667,0,0,2.1666667,-719.96406,-610.38148)">
          <rect
             y="525.60236"
             x="923.38611"
             height="98.745667"
             width="98.863182"
             id="rect2642"
             style="opacity:1;fill:#3ae374;fill-opacity:1;stroke:none;stroke-width:0.46740347;stroke-miterlimit:4;stroke-dasharray:none"
             inkscape:export-xdpi="152.39999"
             inkscape:export-ydpi="152.39999"
             ry="12.634774" />
          <g
             style="fill:#ffffff;fill-opacity:1"
             transform="matrix(0.35079601,0,0,0.35052484,729.55212,455.93295)"
             id="g22">
            <path
               inkscape:connector-curvature="0"
               id="path20"
               d="m 568.48962,284.51527 c -4.49539,0.37908 2.7123,23.40497 20.34957,64.67793 l 18.21973,42.63422 38.253,2.04194 c 21.03583,1.12323 54.79943,1.12323 75.03486,0 l 36.79346,-2.04194 12.26256,-22.76882 c 18.64401,-34.61665 27.49724,-48.57457 40.40026,-63.70914 20.06087,-23.5313 6.97494,-21.0185 -14.45333,2.77576 -20.57393,22.84576 -36.16669,48.08385 -36.16669,58.54049 0,13.11757 -12.51501,16.49025 -66.75344,17.98302 -73.74912,2.02884 -79.06785,0.78234 -84.65107,-19.92635 -5.60691,-20.79649 -31.63215,-75.95876 -37.56531,-79.62122 -0.47298,-0.29196 -0.88926,-0.4734 -1.25062,-0.54819 -0.16942,-0.035 -0.32797,-0.0499 -0.47298,-0.0377 z m 127.65705,4.50736 c -0.87929,-0.016 -2.19932,0.93197 -3.96081,2.3929 -10.14039,8.40611 -19.35103,59.75687 -12.03041,67.0679 4.61683,4.61178 6.45069,-0.13143 11.96078,-30.87854 5.33671,-29.7849 6.66796,-38.53416 4.03044,-38.58226 z m 60.51189,3.28044 c -0.69779,-0.0119 -1.5614,0.15626 -2.5854,0.49309 -11.47268,3.7735 -38.59953,72.48892 -28.61649,72.48892 2.24834,0 5.24455,-5.77147 6.65938,-12.83756 1.4148,-7.06527 8.08376,-21.79263 14.81894,-32.72617 11.48244,-18.63901 14.6094,-27.34072 9.72357,-27.41828 z m -125.44886,4.78 c -0.15267,0.0104 -0.30344,0.0414 -0.45267,0.0928 -9.44257,3.24681 3.25313,64.02821 13.37391,64.02821 4.44025,0 5.10862,-3.89433 2.98004,-17.35361 -4.12917,-26.11092 -10.69629,-45.73264 -15.43701,-46.72972 -0.15798,-0.0333 -0.31154,-0.047 -0.46427,-0.0377 z"
               style="opacity:1;fill:#ffffff;fill-opacity:1;stroke:none;stroke-width:0;stroke-miterlimit:4;stroke-dasharray:none;stroke-opacity:1"
               sodipodi:nodetypes="cccccccccscscccccccccccscccccscccc" />
          </g>
        </g>
      </g>
    </g>
  </g>
</svg>
