<?xml version="1.0" encoding="UTF-8" standalone="no"?>
<!-- Created with Inkscape (http://www.inkscape.org/) -->

<svg
   xmlns:dc="http://purl.org/dc/elements/1.1/"
   xmlns:cc="http://creativecommons.org/ns#"
   xmlns:rdf="http://www.w3.org/1999/02/22-rdf-syntax-ns#"
   xmlns:svg="http://www.w3.org/2000/svg"
   xmlns="http://www.w3.org/2000/svg"
   xmlns:sodipodi="http://sodipodi.sourceforge.net/DTD/sodipodi-0.dtd"
   xmlns:inkscape="http://www.inkscape.org/namespaces/inkscape"
   width="90"
   height="90"
   viewBox="0 0 23.8125 23.8125"
   version="1.1"
   id="svg5673"
   inkscape:version="0.92.3 (2405546, 2018-03-11)"
   sodipodi:docname="logo.svg">
  <defs
     id="defs5667" />
  <sodipodi:namedview
     id="base"
     pagecolor="#ffffff"
     bordercolor="#666666"
     borderopacity="1.0"
     inkscape:pageopacity="0.0"
     inkscape:pageshadow="2"
     inkscape:zoom="2.8284271"
     inkscape:cx="59.788248"
     inkscape:cy="12.181078"
     inkscape:document-units="px"
     inkscape:current-layer="layer1"
     showgrid="false"
     units="px"
     inkscape:window-width="1366"
     inkscape:window-height="692"
     inkscape:window-x="0"
     inkscape:window-y="0"
     inkscape:window-maximized="1"
     showguides="true"
     inkscape:guide-bbox="true" />
  <metadata
     id="metadata5670">
    <rdf:RDF>
      <cc:Work
         rdf:about="">
        <dc:format>image/svg+xml</dc:format>
        <dc:type
           rdf:resource="http://purl.org/dc/dcmitype/StillImage" />
        <dc:title></dc:title>
      </cc:Work>
    </rdf:RDF>
  </metadata>
  <g
     inkscape:groupmode="layer"
     id="layer2"
     inkscape:label="wwsText"
     transform="translate(0,10.583333)" />
  <g
     inkscape:label="wwsIcon"
     inkscape:groupmode="layer"
     id="layer1"
     transform="translate(0,-273.18749)">
    <g
       transform="matrix(0.15146868,0,0,0.1515317,-79.185026,234.07118)"
       style="fill:#ffffff;fill-opacity:1"
       id="g24">
      <g
         style="fill:#ffffff;fill-opacity:1"
         transform="matrix(0.57706595,0,0,0.57706595,201.2106,140.73398)"
         id="g22">
        <path
           inkscape:connector-curvature="0"
           id="path20"
           d="m 558.65914,248.06217 c -4.84898,0.4089 2.92564,25.24591 21.95018,69.76523 l 19.65282,45.98766 41.26183,2.20255 c 22.69042,1.21158 59.10973,1.21158 80.93679,0 l 39.68749,-2.20255 13.22708,-24.55972 c 20.11047,-37.33946 29.66006,-52.39525 43.57798,-68.72025 21.63877,-25.38217 7.52356,-22.67173 -15.59017,2.99409 -22.19219,24.64272 -39.01142,51.86593 -39.01142,63.14505 0,14.14934 -13.49939,17.78731 -72.00399,19.39749 -79.54992,2.18842 -85.287,0.84388 -91.30938,-21.49367 -6.04793,-22.43226 -34.1202,-81.93337 -40.52004,-85.8839 -0.51018,-0.31493 -0.95921,-0.51064 -1.34899,-0.59131 -0.18275,-0.0378 -0.35377,-0.0538 -0.51018,-0.0407 z m 137.69803,4.86189 c -0.94845,-0.0173 -2.37231,1.00528 -4.27235,2.58112 -10.93799,9.0673 -20.87311,64.4571 -12.97668,72.34319 4.97998,4.97452 6.95808,-0.14177 12.90157,-33.30733 5.75647,-32.12765 7.19244,-41.56509 4.34746,-41.61698 z m 65.27151,3.53847 c -0.75268,-0.0128 -1.68422,0.16855 -2.78876,0.53187 -12.37507,4.07031 -41.63561,78.1906 -30.86735,78.1906 2.42519,0 5.65707,-6.22542 7.18318,-13.8473 1.52609,-7.621 8.7196,-23.50675 15.98454,-35.30028 12.3856,-20.10508 15.75852,-29.49123 10.48839,-29.57489 z m -135.31616,5.15597 c -0.16468,0.0112 -0.3273,0.0447 -0.48827,0.10012 -10.18529,3.5022 3.509,69.06441 14.42584,69.06441 4.78951,0 5.51045,-4.20064 3.21444,-18.71857 -4.45395,-28.1647 -11.53761,-49.32978 -16.65122,-50.40529 -0.17041,-0.0359 -0.33604,-0.0507 -0.50079,-0.0407 z m 115.79793,120.52405 c -3.31321,0 -4.9672,0.18043 -4.9672,0.54437 v 7.86223 c 0,0.21837 1.65399,0.32539 4.9672,0.32539 3.34962,0 5.02666,-0.12687 5.02666,-0.38169 v -8.02493 c 0,-0.21837 -1.67704,-0.32537 -5.02666,-0.32537 z m -90.75851,10.86259 c -2.73067,0 -5.07938,0.7081 -7.04546,2.12745 -1.96609,1.41936 -2.9484,3.47652 -2.9484,6.16965 0,4.2217 2.27526,7.26074 6.82637,9.11682 1.89327,0.87344 2.83885,1.58469 2.83885,2.1306 0,0.76426 -0.54468,1.14507 -1.63696,1.14507 -1.71121,0 -4.04313,-0.89168 -6.99226,-2.67497 -0.50972,0.36394 -1.01767,1.10876 -1.5274,2.23696 -0.47331,1.12821 -0.71049,2.20346 -0.71049,3.22248 0,1.52854 1.05577,2.72761 3.16748,3.60105 2.11173,0.87345 4.46044,1.3109 7.04547,1.3109 3.89576,0 6.80909,-0.89167 8.73876,-2.67497 1.92968,-1.8197 2.89519,-4.18422 2.89519,-7.09573 0,-2.22003 -0.87525,-4.0233 -2.62289,-5.40626 -0.8374,-0.6551 -1.60246,-1.16287 -2.29423,-1.52676 -0.65536,-0.36394 -1.49388,-0.76472 -2.51333,-1.2014 -1.01946,-0.47312 -1.72786,-0.85393 -2.12835,-1.14508 -0.36409,-0.32755 -0.54461,-0.71149 -0.54461,-1.14821 0,-0.69148 0.49115,-1.03557 1.4742,-1.03557 1.82045,0 3.51115,0.43431 5.07673,1.30777 0.29128,-0.10924 0.81916,-0.8173 1.58375,-2.12747 0.801,-1.31018 1.20189,-2.36551 1.20189,-3.16616 0,-0.94624 -0.96551,-1.711 -2.89518,-2.29329 -1.89327,-0.58231 -4.22205,-0.87288 -6.98913,-0.87288 z m 16.56044,0 c -2.33017,0 -3.49612,1.96379 -3.49612,5.89431 0,1.05543 0.16372,1.94711 0.4914,2.675 0.36409,0.69146 0.83844,1.03868 1.42099,1.03868 h 1.47419 v 18.12414 c 0,0.21835 1.65712,0.36209 4.97032,0.43487 3.31322,0 4.97033,-0.12686 4.97033,-0.38169 v -15.23014 c 0,-2.18364 0.69161,-3.27566 2.07514,-3.27566 0.47332,0 1.0012,0.14689 1.58374,0.43799 0.61896,0.25476 0.9632,0.38169 1.03601,0.38169 0.0728,0 0.2932,-0.32729 0.65729,-0.98238 0.36408,-0.65509 0.70832,-1.71042 1.036,-3.16617 0.36409,-1.45575 0.54774,-2.45757 0.54774,-3.00348 0,-0.58231 -0.0566,-1.01974 -0.16589,-1.3109 -0.43691,-1.09181 -1.70992,-1.63626 -3.82164,-1.63626 -1.34712,0 -2.67681,0.45422 -3.98753,1.36408 -1.27431,0.87344 -2.29335,2.05571 -3.05793,3.54785 0,-1.27378 -0.54781,-2.40254 -1.64009,-3.38517 -1.09227,-1.01903 -2.45554,-1.52676 -4.09395,-1.52676 z m 31.1021,0 c -3.64089,0 -6.66441,1.32912 -9.0674,3.98587 -2.36658,2.65674 -3.54934,6.16682 -3.54934,10.53408 0,4.33085 1.23629,7.73391 3.71209,10.2087 2.47581,2.43838 5.51613,3.65736 9.12061,3.65736 3.60449,0 6.55454,-0.6714 8.84831,-2.01797 0.69177,-0.32753 1.03913,-1.01886 1.03913,-2.07428 0,-1.09181 -0.43762,-2.42093 -1.31143,-3.98586 -0.29127,-0.54592 -0.455,-0.79978 -0.4914,-0.76338 -2.29376,1.1646 -4.71594,1.74576 -7.26457,1.74576 -1.16508,0 -2.05713,-0.20035 -2.67609,-0.60069 -0.58254,-0.43673 -0.87324,-1.20148 -0.87324,-2.29328 h 3.76843 c 6.77206,0 10.15662,-2.94883 10.15662,-8.84462 0,-2.65675 -0.99912,-4.91113 -3.0016,-6.76722 -1.96608,-1.85609 -4.76923,-2.78447 -8.41012,-2.78447 z m 26.61378,0 c -3.82295,0 -6.89999,1.32912 -9.23017,3.98587 -2.29376,2.65674 -3.43978,6.15003 -3.43978,10.48089 0,4.29446 1.16283,7.69753 3.493,10.2087 2.36658,2.47478 5.22637,3.71055 8.57599,3.71055 3.34963,0 5.98905,-0.6011 7.91873,-1.80208 0.18204,-0.21837 0.2723,-0.65269 0.2723,-1.30778 0,-0.69148 -0.18052,-1.9671 -0.54461,-3.82318 -0.32768,-1.89247 -0.7653,-2.83766 -1.31144,-2.83766 -1.16508,0.69149 -2.62175,1.03557 -4.36938,1.03557 -2.69426,0 -4.04073,-1.78334 -4.04073,-5.34994 0,-1.96527 0.31063,-3.38461 0.92958,-4.25806 0.61896,-0.87346 1.34416,-1.30777 2.18157,-1.30777 0.87381,0 2.02297,0.70812 3.44291,2.12747 0.4005,0.43672 0.72794,0.65701 0.9828,0.65701 0.29127,0 0.50852,-0.0199 0.65415,-0.0562 1.05586,-0.36394 1.91119,-1.70985 2.56654,-4.03906 0.29128,-1.12821 0.4382,-2.0734 0.4382,-2.83766 0,-0.80067 -0.16372,-1.40177 -0.4914,-1.80209 -1.49276,-1.85609 -4.16892,-2.78447 -8.02826,-2.78447 z m 68.31692,0 c -3.64089,0 -6.66128,1.32912 -9.06427,3.98587 -2.36657,2.65674 -3.54933,6.16682 -3.54933,10.53408 0,4.33085 1.23628,7.73391 3.71209,10.2087 2.4758,2.43838 5.51613,3.65736 9.12061,3.65736 3.60448,0 6.55454,-0.6714 8.8483,-2.01797 0.69177,-0.32753 1.03914,-1.01886 1.03914,-2.07428 0,-1.09181 -0.43763,-2.42093 -1.31144,-3.98586 -0.29127,-0.54592 -0.45499,-0.79978 -0.4914,-0.76338 -2.29376,1.1646 -4.71594,1.74576 -7.26456,1.74576 -1.16509,0 -2.05714,-0.20035 -2.67609,-0.60069 -0.58254,-0.43673 -0.87324,-1.20148 -0.87324,-2.29328 h 3.76843 c 6.77206,0 10.15661,-2.94883 10.15661,-8.84462 0,-2.65675 -0.99911,-4.91113 -3.0016,-6.76722 -1.96608,-1.85609 -4.77235,-2.78447 -8.41325,-2.78447 z m 25.08637,0 c -2.73067,0 -5.07938,0.7081 -7.04546,2.12745 -1.96609,1.41936 -2.9484,3.47652 -2.9484,6.16965 0,4.2217 2.27526,7.26074 6.82638,9.11682 1.89326,0.87344 2.84197,1.58469 2.84197,2.1306 0,0.76426 -0.54781,1.14507 -1.64008,1.14507 -1.71122,0 -4.04,-0.89168 -6.98913,-2.67497 -0.50972,0.36394 -1.02081,1.10876 -1.53053,2.23696 -0.47332,1.12821 -0.7105,2.20346 -0.7105,3.22248 0,1.52854 1.05577,2.72761 3.16749,3.60105 2.11172,0.87345 4.46043,1.3109 7.04547,1.3109 3.89575,0 6.80908,-0.89167 8.73876,-2.67497 1.92967,-1.8197 2.89518,-4.18422 2.89518,-7.09573 0,-2.22003 -0.87525,-4.0233 -2.62288,-5.40626 -0.83741,-0.6551 -1.60247,-1.16287 -2.29423,-1.52676 -0.65537,-0.36394 -1.49076,-0.76472 -2.51021,-1.2014 -1.01945,-0.47312 -1.73098,-0.85393 -2.13148,-1.14508 -0.36409,-0.32755 -0.54461,-0.71149 -0.54461,-1.14821 0,-0.69148 0.49116,-1.03557 1.47419,-1.03557 1.82045,0 3.51429,0.43431 5.07988,1.30777 0.29127,-0.10924 0.81916,-0.8173 1.58375,-2.12747 0.80099,-1.31018 1.19875,-2.36551 1.19875,-3.16616 0,-0.94624 -0.96237,-1.711 -2.89205,-2.29329 -1.89326,-0.58231 -4.22518,-0.87288 -6.99226,-0.87288 z m -64.11656,0.0532 c -1.602,0 -2.76796,0.80145 -3.49613,2.40279 -0.50973,1.0918 -0.76371,2.03699 -0.76371,2.83765 0,0.80067 0.0535,1.4584 0.16276,1.96791 0.32768,1.60132 0.92903,2.39966 1.80284,2.39966 h 1.85605 v 28.11382 c 0,0.25477 1.55005,0.38482 4.64481,0.38482 3.13116,0 4.69489,-0.13007 4.69489,-0.38482 v -9.93337 c 1.16509,0.14561 2.45804,0.21898 3.87798,0.21898 3.13117,0 5.71706,-1.25569 7.75597,-3.76686 2.03889,-2.54755 3.05793,-6.11428 3.05793,-10.6999 0,-4.622 -1.01904,-8.02507 -3.05793,-10.20869 -2.03891,-2.22004 -4.47789,-3.33199 -7.31778,-3.33199 -2.83989,0 -5.47932,0.94831 -7.91871,2.8408 0,-0.0727 -0.18366,-0.30989 -0.54774,-0.7102 -0.32768,-0.43674 -0.94583,-0.89097 -1.85605,-1.3641 -0.87382,-0.50947 -1.83933,-0.7665 -2.89518,-0.7665 z m -192.96005,0.1658 c -3.24039,0 -4.80724,0.10701 -4.69801,0.32539 l 4.86078,26.58707 c 0.10922,0.65508 2.18716,0.98239 6.22855,0.98239 4.0778,0 6.1694,-0.2738 6.27863,-0.81971 l 2.78564,-12.22667 2.2379,12.22667 c 0.10923,0.58229 2.1305,0.87288 6.06267,0.87288 3.93216,0 5.95344,-0.29059 6.06267,-0.87288 l 5.35218,-26.53075 c 0.0728,-0.29115 -2.14891,-0.43488 -6.66363,-0.43488 -2.00248,0 -3.0016,0.16369 -3.0016,0.49119 l -1.96871,17.84882 -4.4758,-18.01462 c -0.0728,-0.21837 -1.2755,-0.32539 -3.60568,-0.32539 -2.33017,0 -3.53286,0.107 -3.60568,0.32539 l -4.53213,18.23362 -2.5102,-18.45263 c 0,-0.10925 -1.60359,-0.17949 -4.80758,-0.21589 z m 41.06779,0 c -3.2404,0 -4.80725,0.10701 -4.69803,0.32539 l 4.86078,26.58707 c 0.10923,0.65508 2.18404,0.98239 6.22543,0.98239 4.0778,0 6.17254,-0.2738 6.28177,-0.81971 l 2.78563,-12.22667 2.2379,12.22667 c 0.10923,0.58229 2.13051,0.87288 6.06267,0.87288 3.93216,0 5.95344,-0.29059 6.06267,-0.87288 l 5.35218,-26.53075 c 0.0728,-0.29115 -2.14891,-0.43488 -6.66362,-0.43488 -2.00249,0 -3.00473,0.16369 -3.00473,0.49119 l -1.9656,17.84882 -4.47892,-18.01462 c -0.0728,-0.21837 -1.27238,-0.32539 -3.60255,-0.32539 -2.33017,0 -3.53286,0.107 -3.60567,0.32539 l -4.53215,18.23362 -2.51332,-18.45263 c 0,-0.10925 -1.60046,-0.17949 -4.80444,-0.21589 z m 139.08772,0.16271 c -3.31321,0 -4.9672,0.12687 -4.9672,0.38168 v 26.80294 c 0,0.25476 1.65399,0.38482 4.9672,0.38482 3.34962,0 5.02666,-0.1469 5.02666,-0.43801 v -26.80292 c 0,-0.21837 -1.67704,-0.32851 -5.02666,-0.32851 z m -43.09597,7.91541 c 1.49276,0 2.2379,0.76474 2.2379,2.29328 0,1.2374 -0.60134,1.85529 -1.80284,1.85529 h -2.94839 v -1.69259 c 0,-0.80067 0.23718,-1.40177 0.71049,-1.80209 0.50972,-0.43673 1.11107,-0.65389 1.80284,-0.65389 z m 94.9307,0 c 1.49277,0 2.24103,0.76474 2.24103,2.29328 0,1.2374 -0.60135,1.85529 -1.80284,1.85529 h -2.94838 v -1.69259 c 0,-0.80067 0.23717,-1.40177 0.71049,-1.80209 0.50972,-0.43673 1.10793,-0.65389 1.7997,-0.65389 z m -27.88765,1.31089 c 1.89326,0 2.83884,1.54629 2.83884,4.63977 0,3.67575 -0.74513,5.58606 -2.23789,5.73163 h -0.92959 c -0.36409,0 -0.85525,-0.0367 -1.4742,-0.10957 v -9.6612 c 0.58254,-0.40032 1.18388,-0.60069 1.80284,-0.60069 z"
           style="opacity:1;fill:#ffffff;fill-opacity:1;stroke:none;stroke-width:0;stroke-miterlimit:4;stroke-dasharray:none;stroke-opacity:1" />
      </g>
    </g>
  </g>
</svg>
