<?xml version="1.0" encoding="UTF-8" standalone="no"?>
<!-- Created with Inkscape (http://www.inkscape.org/) -->

<svg
   xmlns:dc="http://purl.org/dc/elements/1.1/"
   xmlns:cc="http://creativecommons.org/ns#"
   xmlns:rdf="http://www.w3.org/1999/02/22-rdf-syntax-ns#"
   xmlns:svg="http://www.w3.org/2000/svg"
   xmlns="http://www.w3.org/2000/svg"
   xmlns:sodipodi="http://sodipodi.sourceforge.net/DTD/sodipodi-0.dtd"
   xmlns:inkscape="http://www.inkscape.org/namespaces/inkscape"
   width="210mm"
   height="297mm"
   viewBox="0 0 210 297"
   version="1.1"
   id="svg948"
   inkscape:version="0.91 r13725"
   sodipodi:docname="new-logo.svg">
  <defs
     id="defs942" />
  <sodipodi:namedview
     id="base"
     pagecolor="#ffffff"
     bordercolor="#666666"
     borderopacity="1.0"
     inkscape:pageopacity="0.0"
     inkscape:pageshadow="2"
     inkscape:zoom="1.1375"
     inkscape:cx="482.30533"
     inkscape:cy="512.53146"
     inkscape:document-units="mm"
     inkscape:current-layer="layer1"
     showgrid="false"
     inkscape:window-width="1317"
     inkscape:window-height="744"
     inkscape:window-x="49"
     inkscape:window-y="24"
     inkscape:window-maximized="1"
     showguides="false" />
  <metadata
     id="metadata945">
    <rdf:RDF>
      <cc:Work
         rdf:about="">
        <dc:format>image/svg+xml</dc:format>
        <dc:type
           rdf:resource="http://purl.org/dc/dcmitype/StillImage" />
        <dc:title />
      </cc:Work>
    </rdf:RDF>
  </metadata>
  <g
     inkscape:label="Layer 1"
     inkscape:groupmode="layer"
     id="layer1">
    <g
       id="g1528"
       style="fill:#ffff00" />
    <g
       id="g4261">
      <rect
         style="fill:none;opacity:1;fill-opacity:1;stroke:none;stroke-width:1.28152156;stroke-linejoin:bevel;stroke-miterlimit:4;stroke-dasharray:none;stroke-opacity:1"
         id="rect1523"
         width="84.666664"
         height="25.4"
         x="85.406517"
         y="127.60719"
         ry="1.8235896" />
      <g
         transform="translate(-3.8130384,-4.5015782e-6)"
         id="g4255">
        <path
           style="fill:#ffffff;stroke-width:0.99999994"
           d="m 115.71677,150.18497 c 0.14233,-8e-4 0.75079,-0.30195 1.35212,-0.66981 0.60134,-0.36785 1.56676,-0.95876 2.14517,-1.31319 0.57841,-0.35444 1.19835,-0.73424 1.37775,-0.84391 0.17941,-0.10967 0.35969,-0.31876 0.40063,-0.4646 0.0409,-0.14582 0.0745,-3.11424 0.0745,-6.5965 0,-5.72975 -0.0158,-6.34698 -0.16413,-6.49537 -0.32994,-0.32996 -6.2432,-3.44015 -6.34611,-3.33786 -0.0632,0.0628 -0.10452,1.64503 -0.11189,4.28897 -0.006,2.30425 -0.0429,4.23998 -0.081,4.30168 -0.0381,0.0617 -0.12657,0.11229 -0.1964,0.11229 -0.0698,0 -1.26062,-1.14931 -2.64615,-2.55402 -1.67722,-1.70043 -2.58829,-2.55401 -2.72597,-2.55401 -0.13747,0 -1.05385,0.85612 -2.73379,2.55401 -1.38985,1.40471 -2.57672,2.55402 -2.63754,2.55402 -0.30891,0 -0.33347,-0.30892 -0.35936,-4.51609 -0.0241,-3.91169 -0.0395,-4.24549 -0.19425,-4.21991 -0.25233,0.0417 -5.680995,2.9671 -6.035071,3.25218 l -0.306928,0.24727 0,6.47248 0,6.47228 0.300472,0.2856 c 0.165261,0.15708 0.954,0.68197 1.752755,1.16629 0.798757,0.48432 1.722712,1.05248 2.053232,1.26273 0.75484,0.48017 1.1284,0.62206 1.43546,0.545 0.27122,-0.0681 0.36175,-0.15832 3.95406,-3.93979 1.5771,-1.66014 2.65787,-2.72127 2.77155,-2.72127 0.11151,0 0.98371,0.83008 2.17216,2.06712 4.2888,4.46411 4.47428,4.64548 4.74868,4.64441 z"
           id="path1518"
           inkscape:connector-curvature="0" />
        <path
           inkscape:connector-curvature="0"
           id="path2376"
           d="m 158.38229,130.42942 c -3.03786,0 -5.40498,0.1042 -5.80672,0.25599 -0.91982,0.34752 -1.86635,1.27584 -3.01912,2.96171 -1.11609,1.63222 -1.37796,2.87585 -0.82913,3.93718 0.33561,0.64898 2.30518,2.50034 3.67508,3.45485 1.85109,1.28979 2.98806,2.24807 2.98806,2.51797 0,0.23347 -0.50818,0.30998 -1.98765,0.29881 -1.0932,-0.008 -2.55684,0.003 -3.25251,0.0249 l -1.26487,0.0405 0,1.89165 c 0,1.56572 0.0942,2.03289 0.54679,2.71043 1.01805,1.52392 1.61537,1.66112 7.23111,1.66155 3.68287,2.4e-4 5.21445,-0.0864 5.7926,-0.32798 0.81294,-0.33967 2.2039,-1.77879 3.4318,-3.55085 1.19136,-1.71933 0.8146,-3.71854 -0.93924,-4.98371 -3.17859,-2.29294 -5.12621,-3.76834 -5.26887,-3.99177 -0.31354,-0.49103 0.37936,-0.60529 2.83325,-0.46632 1.34664,0.0762 2.74575,0.0643 3.10899,-0.0268 0.65994,-0.16564 0.66032,-0.16738 0.57409,-2.06623 -0.0954,-2.10144 -0.45465,-2.82369 -1.88884,-3.79978 -0.76439,-0.52025 -1.00287,-0.54209 -5.92482,-0.54209 z"
           style="fill:#ecef2c;fill-opacity:1;stroke-width:1.00000012" />
        <path
           inkscape:connector-curvature="0"
           id="path2379"
           d="m 141.67773,150.18497 c 0.14233,-8e-4 0.75079,-0.30195 1.35212,-0.66981 0.60134,-0.36785 1.56676,-0.95876 2.14517,-1.31319 0.57841,-0.35444 1.19835,-0.73424 1.37775,-0.84391 0.17941,-0.10967 0.35969,-0.31876 0.40063,-0.4646 0.041,-0.14582 0.0745,-3.11424 0.0745,-6.5965 0,-5.72975 -0.0158,-6.34698 -0.16413,-6.49537 -0.32994,-0.32996 -6.2432,-3.44015 -6.34611,-3.33786 -0.0632,0.0628 -0.10452,1.64503 -0.11189,4.28897 -0.006,2.30425 -0.0429,4.23998 -0.081,4.30168 -0.0381,0.0617 -0.12657,0.11229 -0.1964,0.11229 -0.0698,0 -1.26062,-1.14931 -2.64615,-2.55402 -1.67722,-1.70043 -2.58829,-2.55401 -2.72597,-2.55401 -0.13747,0 -1.05385,0.85612 -2.73379,2.55401 -1.38985,1.40471 -2.57672,2.55402 -2.63754,2.55402 -0.30891,0 -0.33347,-0.30892 -0.35936,-4.51609 -0.0241,-3.91169 -0.0395,-4.24549 -0.19425,-4.21991 -0.25233,0.0417 -5.681,2.9671 -6.03507,3.25218 l -0.30693,0.24727 0,6.47248 0,6.47228 0.30047,0.2856 c 0.16526,0.15708 0.954,0.68197 1.75276,1.16629 0.79875,0.48432 1.72271,1.05248 2.05323,1.26273 0.75484,0.48017 1.1284,0.62206 1.43546,0.545 0.27122,-0.0681 0.36175,-0.15832 3.95406,-3.93979 1.5771,-1.66014 2.65787,-2.72127 2.77155,-2.72127 0.11151,0 0.98371,0.83008 2.17216,2.06712 4.2888,4.46411 4.47428,4.64548 4.74868,4.64441 z"
           style="fill:#ffffff;stroke-width:0.99999994" />
      </g>
    </g>
  </g>
</svg>
