<?xml version="1.0" encoding="UTF-8" standalone="no"?>
<!-- Created with Inkscape (http://www.inkscape.org/) -->

<svg
   xmlns:dc="http://purl.org/dc/elements/1.1/"
   xmlns:cc="http://creativecommons.org/ns#"
   xmlns:rdf="http://www.w3.org/1999/02/22-rdf-syntax-ns#"
   xmlns:svg="http://www.w3.org/2000/svg"
   xmlns="http://www.w3.org/2000/svg"
   xmlns:sodipodi="http://sodipodi.sourceforge.net/DTD/sodipodi-0.dtd"
   xmlns:inkscape="http://www.inkscape.org/namespaces/inkscape"
   width="200"
   height="41"
   viewBox="0 0 52.916665 10.847917"
   version="1.1"
   id="svg2029"
   inkscape:version="0.92.3 (2405546, 2018-03-11)"
   sodipodi:docname="print-share-button.svg">
  <defs
     id="defs2023" />
  <sodipodi:namedview
     id="base"
     pagecolor="#ffffff"
     bordercolor="#666666"
     borderopacity="1.0"
     inkscape:pageopacity="0.0"
     inkscape:pageshadow="2"
     inkscape:zoom="1.979899"
     inkscape:cx="60.404607"
     inkscape:cy="-17.682334"
     inkscape:document-units="px"
     inkscape:current-layer="g2200"
     showgrid="false"
     units="px"
     inkscape:window-width="1366"
     inkscape:window-height="692"
     inkscape:window-x="0"
     inkscape:window-y="0"
     inkscape:window-maximized="1" />
  <metadata
     id="metadata2026">
    <rdf:RDF>
      <cc:Work
         rdf:about="">
        <dc:format>image/svg+xml</dc:format>
        <dc:type
           rdf:resource="http://purl.org/dc/dcmitype/StillImage" />
        <dc:title></dc:title>
      </cc:Work>
    </rdf:RDF>
  </metadata>
  <g
     inkscape:label="Layer 1"
     inkscape:groupmode="layer"
     id="layer1"
     transform="translate(0,-286.15207)">
    <g
       id="g1624"
       transform="matrix(0.59506503,0,0,0.59506503,-25.939568,171.05549)">
      <g
         transform="matrix(0.02437695,0,0,0.02437695,49.164855,218.99469)"
         id="g780">
        <g
           id="g1639"
           transform="translate(165.8243,-239.52398)">
          <g
             id="g1668"
             transform="translate(-313.22367,-479.04796)">
            <g
               id="g2200"
               transform="translate(104.24839,-223.68031)">
              <g
                 id="g2223">
                <g
                   transform="matrix(40.948978,0,0,40.948978,-2095.5237,-5682.8051)"
                   id="g684">
                  <g
                     id="g682"
                     transform="translate(-10.156242,-17.907058)">
                    <path
                       id="path630"
                       d="M 144.58909,172.31926 H 58.096797 c -0.714375,0 -1.296458,-0.58209 -1.296458,-1.29646 v -15.63688 c 0,-0.71437 0.582083,-1.29646 1.296458,-1.29646 h 86.492293 c 0.71437,0 1.29646,0.58209 1.29646,1.29646 v 15.63688 c -0.0265,0.71437 -0.58209,1.29646 -1.29646,1.29646 z"
                       class="st0"
                       inkscape:connector-curvature="0"
                       style="fill:#5c8a09;fill-opacity:0.94117647;stroke-width:0.26458332" />
                  </g>
                </g>
                <g
                   id="g2177"
                   transform="translate(56.519512,0.66892306)">
                  <g
                     transform="matrix(41.02236,0,0,41.02236,-2797.7792,-6428.7258)"
                     id="g680">
                    <g
                       id="g636"
                       transform="translate(8.4666669,-0.01322848)">
                      <text
                         xml:space="preserve"
                         style="font-style:normal;font-weight:normal;font-size:7.34467936px;line-height:1.25;font-family:sans-serif;letter-spacing:0px;word-spacing:0px;fill:#ffffff;fill-opacity:1;stroke:none;stroke-width:0.18361698"
                         x="75.959213"
                         y="165.8956"
                         id="text634"><tspan
                           sodipodi:role="line"
                           id="tspan632"
                           x="75.959213"
                           y="165.8956"
                           style="font-style:normal;font-variant:normal;font-weight:bold;font-stretch:normal;font-family:Lato;-inkscape-font-specification:'Lato Bold';fill:#ffffff;stroke-width:0.18361698">Print Friendly</tspan></text>
                    </g>
                  </g>
                  <path
                     id="path688"
                     d="M 31.581,282.865 H 480.422 V 412.94 c 0,8.69 -7.108,15.801 -15.798,15.801 H 47.382 c -8.69,0 -15.801,-7.108 -15.801,-15.801 V 282.865 Z"
                     style="fill:#ffffff"
                     inkscape:connector-curvature="0" />
                  <path
                     id="path690"
                     d="M 31.581,282.865 H 480.422 L 443.285,215.54 H 68.72 l -37.137,67.325 z"
                     style="fill:#ffffff"
                     inkscape:connector-curvature="0" />
                  <g
                     id="g696"
                     style="fill:#cccccc">
                    <path
                       id="path692"
                       d="m 102.316,332.421 h 307.369 c 6.248,0 11.358,5.112 11.358,11.358 v 16.247 c 0,6.245 -5.112,11.355 -11.358,11.355 H 102.316 c -6.248,0 -11.36,-5.112 -11.36,-11.355 v -16.247 c -0.001,-6.246 5.112,-11.358 11.36,-11.358 z"
                       style="fill:#cccccc"
                       inkscape:connector-curvature="0" />
                    <path
                       id="path694"
                       d="m 100.805,232.424 h 310.388 l 9.849,28.024 H 90.953 l 9.849,-28.024 z"
                       style="fill:#cccccc"
                       inkscape:connector-curvature="0" />
                  </g>
                  <path
                     id="path698"
                     d="M 121.259,83.632 H 390.741 V 260.449 H 121.259 Z"
                     style="fill:#729e04;fill-opacity:1"
                     inkscape:connector-curvature="0" />
                  <path
                     id="path700"
                     d="m 107.228,448.972 h 297.546 v -2.649 H 107.228 Z"
                     style="fill:#dfe1e3"
                     inkscape:connector-curvature="0" />
                  <path
                     id="path702"
                     d="M 107.228,446.323 H 404.774 L 390.741,332.424 h -269.48 z"
                     style="fill:#729e04;fill-opacity:1"
                     inkscape:connector-curvature="0" />
                  <g
                     id="g708"
                     style="fill:#ffffff">
                    <path
                       id="path704"
                       d="m 148.9,216.199 h 209.964 v 4.346 H 148.9 Z m 0,12.259 v 0 h 209.964 v 4.344 H 148.9 Z m 0,12.258 v 0 h 139.788 v 4.346 H 148.9 Z"
                       style="fill:#ffffff"
                       inkscape:connector-curvature="0" />
                    <path
                       id="path706"
                       d="m 148.9,194.31 h 172.08 v 4.344 H 148.9 Z m 0,-73.552 v 0 h 209.964 v 4.346 H 148.9 Z m 0,12.26 v 0 h 209.964 v 4.344 H 148.9 Z m 0,12.257 v 0 h 209.964 v 4.346 H 148.9 Z m 0,12.26 v 0 h 172.08 v 4.346 H 148.9 Z m 0,12.26 v 0 h 210.504 v 4.344 H 148.9 Z m 0,12.257 v 0 h 210.504 v 4.346 H 148.9 Z"
                       style="fill:#ffffff"
                       inkscape:connector-curvature="0" />
                  </g>
                  <path
                     id="path710"
                     d="m 430.784,300.449 c 5.005,0 9.06,4.058 9.06,9.06 0,5.005 -4.058,9.062 -9.06,9.062 -5.005,0 -9.062,-4.058 -9.062,-9.062 -10e-4,-5.004 4.057,-9.06 9.062,-9.06 z"
                     style="fill:#ff5b61"
                     inkscape:connector-curvature="0" />
                  <path
                     id="path712"
                     d="m 458.074,300.449 c 5.005,0 9.06,4.058 9.06,9.06 0,5.005 -4.058,9.062 -9.06,9.062 -5.005,0 -9.063,-4.058 -9.063,-9.062 0,-5.004 4.058,-9.06 9.063,-9.06 z"
                     style="fill:#ff6600"
                     inkscape:connector-curvature="0" />
                </g>
              </g>
            </g>
          </g>
        </g>
        <g
           id="g714" />
        <g
           id="g716" />
        <g
           id="g718" />
        <g
           id="g720" />
        <g
           id="g722" />
        <g
           id="g724" />
        <g
           id="g726" />
        <g
           id="g728" />
        <g
           id="g730" />
        <g
           id="g732" />
        <g
           id="g734" />
        <g
           id="g736" />
        <g
           id="g738" />
        <g
           id="g740" />
        <g
           id="g742" />
      </g>
    </g>
  </g>
</svg>
