<?xml version="1.0" encoding="UTF-8" standalone="no"?>
<!-- Created with Inkscape (http://www.inkscape.org/) -->

<svg
   xmlns:dc="http://purl.org/dc/elements/1.1/"
   xmlns:cc="http://creativecommons.org/ns#"
   xmlns:rdf="http://www.w3.org/1999/02/22-rdf-syntax-ns#"
   xmlns:svg="http://www.w3.org/2000/svg"
   xmlns="http://www.w3.org/2000/svg"
   xmlns:sodipodi="http://sodipodi.sourceforge.net/DTD/sodipodi-0.dtd"
   xmlns:inkscape="http://www.inkscape.org/namespaces/inkscape"
   width="200"
   height="41"
   viewBox="0 0 52.916665 10.847917"
   version="1.1"
   id="svg1702"
   sodipodi:docname="twitter-share-button.svg"
   inkscape:version="0.92.3 (2405546, 2018-03-11)">
  <defs
     id="defs1696" />
  <sodipodi:namedview
     id="base"
     pagecolor="#ffffff"
     bordercolor="#666666"
     borderopacity="1.0"
     inkscape:pageopacity="0.0"
     inkscape:pageshadow="2"
     inkscape:zoom="1.8101934"
     inkscape:cx="36.529923"
     inkscape:cy="45.977028"
     inkscape:document-units="px"
     inkscape:current-layer="g479"
     showgrid="false"
     units="px"
     inkscape:window-width="1366"
     inkscape:window-height="692"
     inkscape:window-x="0"
     inkscape:window-y="0"
     inkscape:window-maximized="1" />
  <metadata
     id="metadata1699">
    <rdf:RDF>
      <cc:Work
         rdf:about="">
        <dc:format>image/svg+xml</dc:format>
        <dc:type
           rdf:resource="http://purl.org/dc/dcmitype/StillImage" />
        <dc:title></dc:title>
      </cc:Work>
    </rdf:RDF>
  </metadata>
  <g
     inkscape:label="Layer 1"
     inkscape:groupmode="layer"
     id="layer1"
     transform="translate(0,-286.15207)">
    <g
       transform="matrix(0.59506532,0,0,0.59506532,-25.897349,223.92808)"
       id="g479">
      <g
         transform="matrix(0.26410993,0,0,0.26458333,70.063227,45.696862)"
         id="g85">
        <path
           style="fill:#6cacde;stroke-width:1.06010938"
           inkscape:connector-curvature="0"
           class="st0"
           d="M 230.69323,291.4 H -94.993224 c -3.034346,0 -5.506776,-2.2 -5.506776,-4.9 v -59.1 c 0,-2.7 2.47243,-4.9 5.506776,-4.9 H 230.69323 c 3.03434,0 5.50677,2.2 5.50677,4.9 v 59.1 c 0,2.6 -2.47243,4.9 -5.50677,4.9 z"
           id="path46" />
      </g>
      <g
         transform="translate(1.2719345,-0.01734311)"
         id="g437">
        <g
           id="g83"
           transform="matrix(0.26458333,0,0,0.26458333,69.581638,45.696862)">
          <g
             id="m160Fk_1_">
            <g
               id="g80">
              <path
                 id="path78"
                 d="m -45.4,244.1 c -0.5,1.6 -1.5,2.8 -3,3.8 0.2,0 1.2,-0.2 2,-0.4 0.6,-0.2 1.3,-0.4 1.9,-0.7 -0.4,0.7 -1,1.3 -1.5,1.9 -0.6,0.6 -1.2,1.1 -1.9,1.6 0,0.1 0,0.3 0,0.4 0,0.7 0,1.3 -0.1,2 -0.2,2.6 -0.9,5.1 -2.1,7.4 -1.1,2.2 -2.5,4.1 -4.3,5.8 -2.2,2 -4.8,3.4 -7.7,4.2 -0.9,0.3 -1.9,0.4 -2.8,0.6 -1.2,0.1 -2.3,0.2 -3.5,0.1 -3.5,-0.2 -6.6,-1.2 -9.6,-3 l -0.1,-0.1 c 4.6,0.5 8.2,-1.3 10.1,-2.9 -1.9,-0.1 -3.5,-0.8 -4.8,-2.2 -0.7,-0.8 -1.2,-1.6 -1.6,-2.7 1,0.2 2,0.2 3,-0.1 -1.8,-0.4 -3.3,-1.4 -4.3,-3 -0.8,-1.2 -1.2,-2.5 -1.2,-3.9 0.5,0.3 1,0.5 1.5,0.6 0.5,0.1 1,0.2 1.6,0.2 -1.9,-1.4 -3,-3.3 -3,-5.7 0,-1.3 0.3,-2.4 0.9,-3.5 2.6,3.1 5.8,5.3 9.7,6.4 1.5,0.4 3,0.7 4.6,0.8 0,-0.1 0,-0.2 0,-0.3 -0.1,-0.7 -0.2,-1.4 -0.1,-2.1 0.1,-1.3 0.6,-2.4 1.4,-3.5 1.1,-1.4 2.4,-2.2 4.1,-2.5 2.3,-0.4 4.6,0.3 6.2,1.9 0.1,0.1 0.2,0.1 0.3,0.1 1.4,-0.3 2.8,-0.8 4.1,-1.6 0.1,0.4 0.2,0.4 0.2,0.4 z"
                 class="st1"
                 inkscape:connector-curvature="0"
                 style="fill:#ffffff" />
            </g>
          </g>
        </g>
        <text
           xml:space="preserve"
           style="font-style:normal;font-weight:normal;font-size:7.34467936px;line-height:1.25;font-family:sans-serif;letter-spacing:0px;word-spacing:0px;fill:#ffffff;fill-opacity:1;stroke:none;stroke-width:0.18361698"
           x="62.427708"
           y="116.38072"
           id="text344"><tspan
             sodipodi:role="line"
             id="tspan342"
             x="62.427708"
             y="116.38072"
             style="font-style:normal;font-variant:normal;font-weight:bold;font-stretch:normal;font-family:Lato;-inkscape-font-specification:'Lato Bold';fill:#ffffff;stroke-width:0.18361698">Share on Twitter</tspan></text>
      </g>
    </g>
  </g>
</svg>
